<svg width="231" height="60" viewBox="0 0 231 60" fill="none" xmlns="http://www.w3.org/2000/svg">
<rect x="9.5" width="60" height="60" rx="30" fill="#1C8CF4"/>
<path d="M33.0524 26.5316H27.5399C25.861 26.5316 24.5 27.8849 24.5 29.5543C24.5 31.2237 25.861 32.577 27.5399 32.577H33.0524C34.7313 32.577 36.0923 31.2237 36.0923 29.5543C36.0923 27.8849 34.7313 26.5316 33.0524 26.5316Z" fill="white"/>
<path d="M27.5399 16.666H38.369C40.0468 16.666 41.4089 18.0204 41.4089 19.6887C41.4089 21.357 40.0468 22.7114 38.369 22.7114H27.5399C25.8621 22.7114 24.5 21.357 24.5 19.6887C24.5 18.0204 25.8621 16.666 27.5399 16.666Z" fill="white"/>
<path d="M28.1847 37.2873H27.5399C25.8609 37.2873 24.5 38.6405 24.5 40.31C24.5 41.9795 25.8609 43.3327 27.5399 43.3327H28.1847C29.8637 43.3327 31.2246 41.9795 31.2246 40.31C31.2246 38.6405 29.8637 37.2873 28.1847 37.2873Z" fill="white"/>
<path d="M52.3468 29.2283C53.8008 27.3555 54.4891 26.0276 54.5 23.8144C54.5 23.1781 54.396 22.3397 54.1383 21.4641C53.4815 19.2268 51.8218 16.7394 48.3306 16.7033H46.1411C44.5202 16.7033 43.1968 17.9639 43.1073 19.5528V19.898C43.1907 21.3799 44.3484 22.5767 45.8194 22.7307H47.9266C47.9569 22.7307 47.9931 22.7367 48.0331 22.7475C48.2774 22.8173 48.6548 23.1264 48.6887 23.9563C48.7141 24.5854 48.6101 25.0822 48.0851 25.7281C47.5915 26.3103 47.0907 26.4835 46.3504 26.5316C46.2597 26.5376 46.1665 26.5412 46.0685 26.5448C46.0032 26.5448 45.8786 26.5388 45.7395 26.5316H40.9516C39.2726 26.5316 37.9117 27.8848 37.9117 29.5543C37.9117 31.1589 39.1698 32.4712 40.7581 32.5698H45.627C45.6754 32.571 45.7214 32.5734 45.7661 32.577C46.6335 32.6263 47.0738 32.8428 47.4573 33.2662C47.8395 33.7197 47.981 34.1238 47.981 35.0115C47.981 35.6286 47.8226 36.141 47.4294 36.6125C47.0109 37.0768 46.5524 37.256 45.627 37.2885H36.0415C34.3637 37.2885 33.0028 38.6417 33.0028 40.3112C33.0028 41.9807 34.3407 43.3098 36.0004 43.3327C37.5597 43.3327 39.5629 43.3327 41.6109 43.3327C42.9694 43.3327 44.3472 43.3327 45.627 43.3327C48.2835 43.3652 50.6593 42.1046 52.0431 40.328C53.4512 38.5575 54.0536 37.102 54.0597 35.0115C54.0548 32.9535 53.4657 31.2996 52.0782 29.5459C52.1677 29.44 52.2657 29.339 52.348 29.2307L52.3468 29.2283Z" fill="white"/>
<path d="M192.1 18.5143C189.828 18.5143 187.986 16.6723 187.986 14.4V14.1143C187.986 11.842 189.828 10 192.1 10H217.529C219.801 10 221.643 11.842 221.643 14.1143V14.4C221.643 16.6723 219.801 18.5143 217.529 18.5143H213.929C211.657 18.5143 209.815 20.3563 209.815 22.6286V45.8857C209.815 48.158 207.973 50 205.7 50H203.986C201.714 50 199.872 48.158 199.872 45.8857V22.6286C199.872 20.3563 198.03 18.5143 195.758 18.5143H192.1Z" fill="#F0F7FF"/>
<path d="M181.227 10C183.5 10 185.342 11.842 185.342 14.1143V45.8857C185.342 48.158 183.5 50 181.227 50H179.513C177.241 50 175.399 48.158 175.399 45.8857V14.1143C175.399 11.842 177.241 10 179.513 10H181.227Z" fill="#F0F7FF"/>
<path d="M164.427 29.1429C166.446 29.9429 168.046 31.2 169.227 32.9143C170.446 34.5905 171.056 36.6286 171.056 39.0286C171.056 42.5333 169.741 45.2381 167.113 47.1429C164.484 49.0476 160.656 50 155.627 50H139.513C137.241 50 135.399 48.158 135.399 45.8857V14.1143C135.399 11.842 137.241 10 139.513 10H154.541C159.265 10 162.884 10.9524 165.399 12.8571C167.913 14.7238 169.17 17.2571 169.17 20.4571C169.17 22.3238 168.732 24.019 167.856 25.5429C167.018 27.0286 165.875 28.2286 164.427 29.1429ZM145.341 23.9429C145.341 25.079 146.262 26 147.399 26H153.227C157.189 26 159.17 24.6286 159.17 21.8857C159.17 19.181 157.189 17.8286 153.227 17.8286H147.399C146.262 17.8286 145.341 18.7496 145.341 19.8857V23.9429ZM154.77 42.1714C158.922 42.1714 160.999 40.7429 160.999 37.8857C160.999 35.0286 158.922 33.6 154.77 33.6H147.399C146.262 33.6 145.341 34.521 145.341 35.6571V40.1143C145.341 41.2504 146.262 42.1714 147.399 42.1714H154.77Z" fill="#F0F7FF"/>
<path d="M125.1 25.9429C127.325 25.9429 129.129 27.7465 129.129 29.9714C129.129 32.1963 127.325 34 125.1 34H116.7C114.476 34 112.672 32.1963 112.672 29.9714C112.672 27.7465 114.476 25.9429 116.7 25.9429H125.1Z" fill="#F0F7FF"/>
<path d="M109.557 45.8857C109.557 48.158 107.715 50 105.443 50H83.6143C81.342 50 79.5 48.158 79.5 45.8857V14.1143C79.5 11.842 81.342 10 83.6143 10H104.7C106.972 10 108.814 11.842 108.814 14.1143V14.2286C108.814 16.5008 106.972 18.3429 104.7 18.3429H93.1C91.0802 18.3429 89.4428 19.9802 89.4428 22C89.4428 24.0198 91.0802 25.6571 93.1 25.6571H102.529C104.769 25.6571 106.586 27.4736 106.586 29.7143C106.586 31.955 104.769 33.7714 102.529 33.7714H93.3571C91.1953 33.7714 89.4428 35.5239 89.4428 37.6857C89.4428 39.8475 91.1953 41.6 93.3571 41.6H105.443C107.715 41.6 109.557 43.442 109.557 45.7143V45.8857Z" fill="#1C8CF4"/>
<path d="M109.557 45.8857C109.557 48.158 107.715 50 105.443 50H83.6143C81.342 50 79.5 48.158 79.5 45.8857V14.1143C79.5 11.842 81.342 10 83.6143 10H104.7C106.972 10 108.814 11.842 108.814 14.1143V14.2286C108.814 16.5008 106.972 18.3429 104.7 18.3429H93.1C91.0802 18.3429 89.4428 19.9802 89.4428 22C89.4428 24.0198 91.0802 25.6571 93.1 25.6571H102.529C104.769 25.6571 106.586 27.4736 106.586 29.7143C106.586 31.955 104.769 33.7714 102.529 33.7714H93.3571C91.1953 33.7714 89.4428 35.5239 89.4428 37.6857C89.4428 39.8475 91.1953 41.6 93.3571 41.6H105.443C107.715 41.6 109.557 43.442 109.557 45.7143V45.8857Z" fill="#1C8CF4"/>
</svg>
