<svg width="122" height="40" viewBox="0 0 122 40" fill="none" xmlns="http://www.w3.org/2000/svg">
<rect width="40" height="40" rx="20" fill="#1C8CF4"/>
<path d="M15.7016 17.6591H12.0266C10.9073 17.6591 10 18.5726 10 19.6994C10 20.8262 10.9073 21.7397 12.0266 21.7397H15.7016C16.8209 21.7397 17.7282 20.8262 17.7282 19.6994C17.7282 18.5726 16.8209 17.6591 15.7016 17.6591Z" fill="white"/>
<path d="M12.0266 11H19.246C20.3645 11 21.2726 11.9142 21.2726 13.0403C21.2726 14.1664 20.3645 15.0806 19.246 15.0806H12.0266C10.9081 15.0806 10 14.1664 10 13.0403C10 11.9142 10.9081 11 12.0266 11Z" fill="white"/>
<path d="M12.4565 24.919H12.0266C10.9073 24.919 10 25.8324 10 26.9593C10 28.0862 10.9073 28.9996 12.0266 28.9996H12.4565C13.5758 28.9996 14.4831 28.0862 14.4831 26.9593C14.4831 25.8324 13.5758 24.919 12.4565 24.919Z" fill="white"/>
<path d="M28.5645 19.4794C29.5339 18.2153 29.9927 17.3189 30 15.8251C30 15.3956 29.9306 14.8297 29.7589 14.2386C29.321 12.7285 28.2145 11.0495 25.8871 11.0252H24.4274C23.3468 11.0252 22.4645 11.876 22.4048 12.9485V13.1815C22.4605 14.1818 23.2323 14.9896 24.2129 15.0935H25.6177C25.6379 15.0935 25.6621 15.0976 25.6887 15.1049C25.8516 15.152 26.1032 15.3607 26.1258 15.9209C26.1427 16.3455 26.0734 16.6808 25.7234 17.1168C25.3944 17.5097 25.0605 17.6266 24.5669 17.6591C24.5065 17.6632 24.4444 17.6656 24.379 17.668C24.3355 17.668 24.2524 17.664 24.1597 17.6591H20.9677C19.8484 17.6591 18.9411 18.5725 18.9411 19.6994C18.9411 20.7825 19.7798 21.6682 20.8387 21.7348H24.0847C24.1169 21.7356 24.1476 21.7372 24.1774 21.7397C24.7556 21.773 25.0492 21.9191 25.3048 22.2049C25.5597 22.511 25.654 22.7838 25.654 23.3829C25.654 23.7994 25.5484 24.1453 25.2863 24.4636C25.0073 24.777 24.7016 24.8979 24.0847 24.9198H17.6944C16.5758 24.9198 15.6685 25.8332 15.6685 26.9601C15.6685 28.087 16.5605 28.9842 17.6669 28.9996C18.7065 28.9996 20.0419 28.9996 21.4073 28.9996C22.3129 28.9996 23.2315 28.9996 24.0847 28.9996C25.8556 29.0215 27.4395 28.1706 28.3621 26.9715C29.3008 25.7764 29.7024 24.794 29.7065 23.3829C29.7032 21.9938 29.3105 20.8774 28.3855 19.6937C28.4452 19.6223 28.5105 19.5541 28.5653 19.481L28.5645 19.4794Z" fill="white"/>
<path d="M106.3 14.2571C105.164 14.2571 104.243 13.3361 104.243 12.2V12.0571C104.243 10.921 105.164 10 106.3 10H119.015C120.151 10 121.072 10.921 121.072 12.0571V12.2C121.072 13.3361 120.151 14.2571 119.015 14.2571H117.215C116.078 14.2571 115.157 15.1782 115.157 16.3143V27.9429C115.157 29.079 114.236 30 113.1 30H112.243C111.107 30 110.186 29.079 110.186 27.9429V16.3143C110.186 15.1782 109.265 14.2571 108.129 14.2571H106.3Z" fill="#014569"/>
<path d="M100.864 10C102 10 102.921 10.921 102.921 12.0571V27.9429C102.921 29.079 102 30 100.864 30H100.007C98.8705 30 97.9494 29.079 97.9494 27.9429V12.0571C97.9494 10.921 98.8705 10 100.007 10H100.864Z" fill="#014569"/>
<path d="M92.4636 19.5714C93.4731 19.9714 94.2731 20.6 94.8636 21.4571C95.4731 22.2952 95.7779 23.3143 95.7779 24.5143C95.7779 26.2667 95.1208 27.619 93.8065 28.5714C92.4922 29.5238 90.5779 30 88.0636 30H80.0065C78.8703 30 77.9493 29.079 77.9493 27.9429V12.0571C77.9493 10.921 78.8703 10 80.0065 10H87.5208C89.8827 10 91.6922 10.4762 92.9493 11.4286C94.2065 12.3619 94.835 13.6286 94.835 15.2286C94.835 16.1619 94.616 17.0095 94.1779 17.7714C93.7589 18.5143 93.1874 19.1143 92.4636 19.5714ZM82.9208 16.9714C82.9208 17.5395 83.3813 18 83.9493 18H86.8636C88.8446 18 89.835 17.3143 89.835 15.9429C89.835 14.5905 88.8446 13.9143 86.8636 13.9143H83.9493C83.3813 13.9143 82.9208 14.3748 82.9208 14.9429V16.9714ZM87.635 26.0857C89.7112 26.0857 90.7493 25.3714 90.7493 23.9429C90.7493 22.5143 89.7112 21.8 87.635 21.8H83.9493C83.3813 21.8 82.9208 22.2605 82.9208 22.8286V25.0571C82.9208 25.6252 83.3813 26.0857 83.9493 26.0857H87.635Z" fill="#014569"/>
<path d="M72.8002 17.9714C73.9127 17.9714 74.8145 18.8733 74.8145 19.9857C74.8145 21.0982 73.9127 22 72.8002 22H68.6002C67.4878 22 66.5859 21.0982 66.5859 19.9857C66.5859 18.8733 67.4878 17.9714 68.6002 17.9714H72.8002Z" fill="#014569"/>
<path d="M65.0286 27.9429C65.0286 29.079 64.1076 30 62.9714 30H52.0571C50.921 30 50 29.079 50 27.9429V12.0571C50 10.921 50.921 10 52.0571 10H62.6C63.7361 10 64.6571 10.921 64.6571 12.0571V12.1143C64.6571 13.2504 63.7361 14.1714 62.6 14.1714H56.8C55.7901 14.1714 54.9714 14.9901 54.9714 16C54.9714 17.0099 55.7901 17.8286 56.8 17.8286H61.5143C62.6346 17.8286 63.5429 18.7368 63.5429 19.8571C63.5429 20.9775 62.6346 21.8857 61.5143 21.8857H56.9286C55.8477 21.8857 54.9714 22.762 54.9714 23.8429C54.9714 24.9238 55.8477 25.8 56.9286 25.8H62.9714C64.1076 25.8 65.0286 26.721 65.0286 27.8571V27.9429Z" fill="#1C8CF4"/>
<path d="M65.0286 27.9429C65.0286 29.079 64.1076 30 62.9714 30H52.0571C50.921 30 50 29.079 50 27.9429V12.0571C50 10.921 50.921 10 52.0571 10H62.6C63.7361 10 64.6571 10.921 64.6571 12.0571V12.1143C64.6571 13.2504 63.7361 14.1714 62.6 14.1714H56.8C55.7901 14.1714 54.9714 14.9901 54.9714 16C54.9714 17.0099 55.7901 17.8286 56.8 17.8286H61.5143C62.6346 17.8286 63.5429 18.7368 63.5429 19.8571C63.5429 20.9775 62.6346 21.8857 61.5143 21.8857H56.9286C55.8477 21.8857 54.9714 22.762 54.9714 23.8429C54.9714 24.9238 55.8477 25.8 56.9286 25.8H62.9714C64.1076 25.8 65.0286 26.721 65.0286 27.8571V27.9429Z" fill="#1C8CF4"/>
</svg>
