<svg width="122" height="60" viewBox="0 0 122 60" fill="none" xmlns="http://www.w3.org/2000/svg">
<rect y="10" width="40" height="40" rx="20" fill="#1C8CF4"/>
<path d="M15.7016 27.6591H12.0266C10.9073 27.6591 10 28.5726 10 29.6994C10 30.8262 10.9073 31.7397 12.0266 31.7397H15.7016C16.8209 31.7397 17.7282 30.8262 17.7282 29.6994C17.7282 28.5726 16.8209 27.6591 15.7016 27.6591Z" fill="white"/>
<path d="M12.0266 21H19.246C20.3645 21 21.2726 21.9142 21.2726 23.0403C21.2726 24.1664 20.3645 25.0806 19.246 25.0806H12.0266C10.9081 25.0806 10 24.1664 10 23.0403C10 21.9142 10.9081 21 12.0266 21Z" fill="white"/>
<path d="M12.4565 34.919H12.0266C10.9073 34.919 10 35.8324 10 36.9593C10 38.0862 10.9073 38.9996 12.0266 38.9996H12.4565C13.5758 38.9996 14.4831 38.0862 14.4831 36.9593C14.4831 35.8324 13.5758 34.919 12.4565 34.919Z" fill="white"/>
<path d="M28.5645 29.4794C29.5339 28.2153 29.9927 27.3189 30 25.8251C30 25.3956 29.9306 24.8297 29.7589 24.2386C29.321 22.7285 28.2145 21.0495 25.8871 21.0252H24.4274C23.3468 21.0252 22.4645 21.876 22.4048 22.9485V23.1815C22.4605 24.1818 23.2323 24.9896 24.2129 25.0935H25.6177C25.6379 25.0935 25.6621 25.0976 25.6887 25.1049C25.8516 25.152 26.1032 25.3607 26.1258 25.9209C26.1427 26.3455 26.0734 26.6808 25.7234 27.1168C25.3944 27.5097 25.0605 27.6266 24.5669 27.6591C24.5065 27.6632 24.4444 27.6656 24.379 27.668C24.3355 27.668 24.2524 27.664 24.1597 27.6591H20.9677C19.8484 27.6591 18.9411 28.5725 18.9411 29.6994C18.9411 30.7825 19.7798 31.6682 20.8387 31.7348H24.0847C24.1169 31.7356 24.1476 31.7372 24.1774 31.7397C24.7556 31.773 25.0492 31.9191 25.3048 32.2049C25.5597 32.511 25.654 32.7838 25.654 33.3829C25.654 33.7994 25.5484 34.1453 25.2863 34.4636C25.0073 34.7769 24.7016 34.8979 24.0847 34.9198H17.6944C16.5758 34.9198 15.6685 35.8332 15.6685 36.9601C15.6685 38.087 16.5605 38.9842 17.6669 38.9996C18.7065 38.9996 20.0419 38.9996 21.4073 38.9996C22.3129 38.9996 23.2315 38.9996 24.0847 38.9996C25.8556 39.0215 27.4395 38.1706 28.3621 36.9715C29.3008 35.7764 29.7024 34.794 29.7065 33.3829C29.7032 31.9938 29.3105 30.8774 28.3855 29.6937C28.4452 29.6223 28.5105 29.5541 28.5653 29.481L28.5645 29.4794Z" fill="white"/>
<path d="M106.3 24.2571C105.164 24.2571 104.243 23.3361 104.243 22.2V22.0571C104.243 20.921 105.164 20 106.3 20H119.015C120.151 20 121.072 20.921 121.072 22.0571V22.2C121.072 23.3361 120.151 24.2571 119.015 24.2571H117.215C116.078 24.2571 115.157 25.1782 115.157 26.3143V37.9429C115.157 39.079 114.236 40 113.1 40H112.243C111.107 40 110.186 39.079 110.186 37.9429V26.3143C110.186 25.1782 109.265 24.2571 108.129 24.2571H106.3Z" fill="#014569"/>
<path d="M100.864 20C102 20 102.921 20.921 102.921 22.0571V37.9429C102.921 39.079 102 40 100.864 40H100.007C98.8705 40 97.9494 39.079 97.9494 37.9429V22.0571C97.9494 20.921 98.8705 20 100.007 20H100.864Z" fill="#014569"/>
<path d="M92.4636 29.5714C93.4731 29.9714 94.2731 30.6 94.8636 31.4571C95.4731 32.2952 95.7779 33.3143 95.7779 34.5143C95.7779 36.2667 95.1208 37.619 93.8065 38.5714C92.4922 39.5238 90.5779 40 88.0636 40H80.0065C78.8703 40 77.9493 39.079 77.9493 37.9429V22.0571C77.9493 20.921 78.8703 20 80.0065 20H87.5208C89.8827 20 91.6922 20.4762 92.9493 21.4286C94.2065 22.3619 94.835 23.6286 94.835 25.2286C94.835 26.1619 94.616 27.0095 94.1779 27.7714C93.7589 28.5143 93.1874 29.1143 92.4636 29.5714ZM82.9208 26.9714C82.9208 27.5395 83.3813 28 83.9493 28H86.8636C88.8446 28 89.835 27.3143 89.835 25.9429C89.835 24.5905 88.8446 23.9143 86.8636 23.9143H83.9493C83.3813 23.9143 82.9208 24.3748 82.9208 24.9429V26.9714ZM87.635 36.0857C89.7112 36.0857 90.7493 35.3714 90.7493 33.9429C90.7493 32.5143 89.7112 31.8 87.635 31.8H83.9493C83.3813 31.8 82.9208 32.2605 82.9208 32.8286V35.0571C82.9208 35.6252 83.3813 36.0857 83.9493 36.0857H87.635Z" fill="#014569"/>
<path d="M72.8002 27.9714C73.9127 27.9714 74.8145 28.8733 74.8145 29.9857C74.8145 31.0982 73.9127 32 72.8002 32H68.6002C67.4878 32 66.5859 31.0982 66.5859 29.9857C66.5859 28.8733 67.4878 27.9714 68.6002 27.9714H72.8002Z" fill="#014569"/>
<path d="M65.0286 37.9429C65.0286 39.079 64.1076 40 62.9714 40H52.0571C50.921 40 50 39.079 50 37.9429V22.0571C50 20.921 50.921 20 52.0571 20H62.6C63.7361 20 64.6571 20.921 64.6571 22.0571V22.1143C64.6571 23.2504 63.7361 24.1714 62.6 24.1714H56.8C55.7901 24.1714 54.9714 24.9901 54.9714 26C54.9714 27.0099 55.7901 27.8286 56.8 27.8286H61.5143C62.6346 27.8286 63.5429 28.7368 63.5429 29.8571C63.5429 30.9775 62.6346 31.8857 61.5143 31.8857H56.9286C55.8477 31.8857 54.9714 32.762 54.9714 33.8429C54.9714 34.9238 55.8477 35.8 56.9286 35.8H62.9714C64.1076 35.8 65.0286 36.721 65.0286 37.8571V37.9429Z" fill="#1C8CF4"/>
<path d="M65.0286 37.9429C65.0286 39.079 64.1076 40 62.9714 40H52.0571C50.921 40 50 39.079 50 37.9429V22.0571C50 20.921 50.921 20 52.0571 20H62.6C63.7361 20 64.6571 20.921 64.6571 22.0571V22.1143C64.6571 23.2504 63.7361 24.1714 62.6 24.1714H56.8C55.7901 24.1714 54.9714 24.9901 54.9714 26C54.9714 27.0099 55.7901 27.8286 56.8 27.8286H61.5143C62.6346 27.8286 63.5429 28.7368 63.5429 29.8571C63.5429 30.9775 62.6346 31.8857 61.5143 31.8857H56.9286C55.8477 31.8857 54.9714 32.762 54.9714 33.8429C54.9714 34.9238 55.8477 35.8 56.9286 35.8H62.9714C64.1076 35.8 65.0286 36.721 65.0286 37.8571V37.9429Z" fill="#1C8CF4"/>
</svg>
