<svg width="20" height="20" viewBox="0 0 20 20" fill="none" xmlns="http://www.w3.org/2000/svg">
<path d="M18.7435 14.8603L17.487 13.6038V2.26425C17.487 2.18725 17.455 2.11667 17.391 2.0525C17.3268 1.9885 17.2563 1.9565 17.1793 1.9565H5.83975L4.58325 0.7H17.1793C17.6091 0.7 17.9773 0.85325 18.2838 1.15975C18.5903 1.46625 18.7435 1.83442 18.7435 2.26425V14.8603ZM18.559 19.4538L16.805 17.7H3.30775C2.87792 17.7 2.50975 17.5468 2.20325 17.2403C1.89675 16.9338 1.7435 16.5656 1.7435 16.1358V2.6385L0 0.89475L0.89475 0L19.4538 18.559L18.559 19.4538ZM4.946 13.9873L7.38975 10.7935L9.42675 13.436L10.8045 11.6878L3 3.88325V16.1358C3 16.2128 3.032 16.2833 3.096 16.3475C3.16017 16.4115 3.23075 16.4435 3.30775 16.4435H15.5603L13.1038 13.9873H4.946Z" fill="#475569"/>
</svg>
