<svg width="21" height="18" viewBox="0 0 21 18" fill="none" xmlns="http://www.w3.org/2000/svg">
<path d="M13.6 15.9L12.875 16.125C12.6583 16.1917 12.4458 16.1833 12.2375 16.1C12.0292 16.0167 11.8667 15.8833 11.75 15.7L11.55 15.35C11.4333 15.15 11.3917 14.9333 11.425 14.7C11.4583 14.4667 11.5667 14.275 11.75 14.125L12.3 13.65C12.2667 13.4333 12.25 13.2167 12.25 13C12.25 12.7833 12.2667 12.5667 12.3 12.35L11.75 11.875C11.5667 11.725 11.4583 11.5375 11.425 11.3125C11.3917 11.0875 11.4333 10.875 11.55 10.675L11.775 10.3C11.8917 10.1167 12.05 9.98333 12.25 9.9C12.45 9.81667 12.6583 9.80833 12.875 9.875L13.6 10.1C13.7833 9.96667 13.9625 9.85417 14.1375 9.7625C14.3125 9.67083 14.5 9.58333 14.7 9.5L14.85 8.775C14.9 8.54167 15.0125 8.35417 15.1875 8.2125C15.3625 8.07083 15.5667 8 15.8 8H16.2C16.4333 8 16.6375 8.075 16.8125 8.225C16.9875 8.375 17.1 8.56667 17.15 8.8L17.3 9.5C17.5 9.58333 17.6875 9.67083 17.8625 9.7625C18.0375 9.85417 18.2167 9.96667 18.4 10.1L19.125 9.875C19.3417 9.80833 19.5542 9.81667 19.7625 9.9C19.9708 9.98333 20.1333 10.1167 20.25 10.3L20.45 10.65C20.5667 10.85 20.6083 11.0667 20.575 11.3C20.5417 11.5333 20.4333 11.725 20.25 11.875L19.7 12.35C19.7333 12.5667 19.75 12.7833 19.75 13C19.75 13.2167 19.7333 13.4333 19.7 13.65L20.25 14.125C20.4333 14.275 20.5417 14.4625 20.575 14.6875C20.6083 14.9125 20.5667 15.125 20.45 15.325L20.225 15.7C20.1083 15.8833 19.95 16.0167 19.75 16.1C19.55 16.1833 19.3417 16.1917 19.125 16.125L18.4 15.9C18.2167 16.0333 18.0375 16.1458 17.8625 16.2375C17.6875 16.3292 17.5 16.4167 17.3 16.5L17.15 17.225C17.1 17.4583 16.9875 17.6458 16.8125 17.7875C16.6375 17.9292 16.4333 18 16.2 18H15.8C15.5667 18 15.3625 17.925 15.1875 17.775C15.0125 17.625 14.9 17.4333 14.85 17.2L14.7 16.5C14.5 16.4167 14.3125 16.3292 14.1375 16.2375C13.9625 16.1458 13.7833 16.0333 13.6 15.9ZM17.4125 14.4125C17.8042 14.0208 18 13.55 18 13C18 12.45 17.8042 11.9792 17.4125 11.5875C17.0208 11.1958 16.55 11 16 11C15.45 11 14.9792 11.1958 14.5875 11.5875C14.1958 11.9792 14 12.45 14 13C14 13.55 14.1958 14.0208 14.5875 14.4125C14.9792 14.8042 15.45 15 16 15C16.55 15 17.0208 14.8042 17.4125 14.4125ZM9 6V1C9 0.716667 9.09583 0.479167 9.2875 0.2875C9.47917 0.0958333 9.71667 0 10 0H19C19.2833 0 19.5208 0.0958333 19.7125 0.2875C19.9042 0.479167 20 0.716667 20 1V6C20 6.28333 19.9042 6.52083 19.7125 6.7125C19.5208 6.90417 19.2833 7 19 7H10C9.71667 7 9.47917 6.90417 9.2875 6.7125C9.09583 6.52083 9 6.28333 9 6ZM0 15V10C0 9.71667 0.0958333 9.47917 0.2875 9.2875C0.479167 9.09583 0.716667 9 1 9H9C9.28333 9 9.52083 9.09583 9.7125 9.2875C9.90417 9.47917 10 9.71667 10 10V15C10 15.2833 9.90417 15.5208 9.7125 15.7125C9.52083 15.9042 9.28333 16 9 16H1C0.716667 16 0.479167 15.9042 0.2875 15.7125C0.0958333 15.5208 0 15.2833 0 15ZM0 6V1C0 0.716667 0.0958333 0.479167 0.2875 0.2875C0.479167 0.0958333 0.716667 0 1 0H6C6.28333 0 6.52083 0.0958333 6.7125 0.2875C6.90417 0.479167 7 0.716667 7 1V6C7 6.28333 6.90417 6.52083 6.7125 6.7125C6.52083 6.90417 6.28333 7 6 7H1C0.716667 7 0.479167 6.90417 0.2875 6.7125C0.0958333 6.52083 0 6.28333 0 6Z" fill="#E0EFFF"/>
</svg>
