<svg width="24" height="24" viewBox="0 0 24 24" fill="none" xmlns="http://www.w3.org/2000/svg">
<path d="M12 5C10.85 5 9.775 5.26667 8.775 5.8C7.775 6.33333 6.93333 7.06667 6.25 8H8C8.28333 8 8.52083 8.09583 8.7125 8.2875C8.90417 8.47917 9 8.71667 9 9C9 9.28333 8.90417 9.52083 8.7125 9.7125C8.52083 9.90417 8.28333 10 8 10H4C3.71667 10 3.47917 9.90417 3.2875 9.7125C3.09583 9.52083 3 9.28333 3 9V5C3 4.71667 3.09583 4.47917 3.2875 4.2875C3.47917 4.09583 3.71667 4 4 4C4.28333 4 4.52083 4.09583 4.7125 4.2875C4.90417 4.47917 5 4.71667 5 5V6.35C5.85 5.28333 6.8875 4.45833 8.1125 3.875C9.3375 3.29167 10.6333 3 12 3C13.25 3 14.4208 3.23333 15.5125 3.7C16.6042 4.16667 17.5583 4.80833 18.375 5.625C19.075 6.325 19.65 7.13333 20.1 8.05C20.55 8.96667 20.8333 9.95 20.95 11C20.9833 11.2833 20.9 11.5167 20.7 11.7C20.5 11.8833 20.2583 11.975 19.975 11.975C19.6917 11.975 19.4542 11.8833 19.2625 11.7C19.0708 11.5167 18.9583 11.2833 18.925 11C18.8083 10.2333 18.5833 9.51667 18.25 8.85C17.9167 8.18333 17.4833 7.58333 16.95 7.05C16.3167 6.41667 15.5792 5.91667 14.7375 5.55C13.8958 5.18333 12.9833 5 12 5ZM4.1 13.15C4.36667 13.1167 4.60833 13.1667 4.825 13.3C5.04167 13.4333 5.19167 13.6333 5.275 13.9C5.64167 15.25 6.35 16.375 7.4 17.275C8.45 18.175 9.66667 18.7167 11.05 18.9C11.4 18.95 11.65 19.0792 11.8 19.2875C11.95 19.4958 12.025 19.7167 12.025 19.95C12.025 20.2167 11.9375 20.4583 11.7625 20.675C11.5875 20.8917 11.3417 20.9833 11.025 20.95C9.175 20.7333 7.54583 20.0208 6.1375 18.8125C4.72917 17.6042 3.78333 16.1083 3.3 14.325C3.21667 14.0417 3.25833 13.7833 3.425 13.55C3.59167 13.3167 3.81667 13.1833 4.1 13.15ZM13 11.6L14.2 12.8C14.4333 13.0333 14.5375 13.2792 14.5125 13.5375C14.4875 13.7958 14.3833 14.0167 14.2 14.2C14.0167 14.3833 13.7958 14.4875 13.5375 14.5125C13.2792 14.5375 13.0333 14.4333 12.8 14.2L11.3 12.7C11.2 12.6 11.125 12.4875 11.075 12.3625C11.025 12.2375 11 12.1083 11 11.975V8C11 7.71667 11.0958 7.47917 11.2875 7.2875C11.4792 7.09583 11.7167 7 12 7C12.2833 7 12.5208 7.09583 12.7125 7.2875C12.9042 7.47917 13 7.71667 13 8V11.6ZM18.775 24C18.5417 24 18.3375 23.925 18.1625 23.775C17.9875 23.625 17.875 23.4333 17.825 23.2L17.675 22.5C17.475 22.4167 17.2875 22.3292 17.1125 22.2375C16.9375 22.1458 16.7583 22.0333 16.575 21.9L15.85 22.125C15.6333 22.1917 15.4208 22.1833 15.2125 22.1C15.0042 22.0167 14.8417 21.8833 14.725 21.7L14.525 21.35C14.4083 21.15 14.3667 20.9333 14.4 20.7C14.4333 20.4667 14.5417 20.275 14.725 20.125L15.275 19.65C15.2417 19.4333 15.225 19.2167 15.225 19C15.225 18.7833 15.2417 18.5667 15.275 18.35L14.725 17.875C14.5417 17.725 14.4333 17.5375 14.4 17.3125C14.3667 17.0875 14.4083 16.875 14.525 16.675L14.75 16.3C14.8667 16.1167 15.025 15.9833 15.225 15.9C15.425 15.8167 15.6333 15.8083 15.85 15.875L16.575 16.1C16.7583 15.9667 16.9375 15.8542 17.1125 15.7625C17.2875 15.6708 17.475 15.5833 17.675 15.5L17.825 14.775C17.875 14.5417 17.9875 14.3542 18.1625 14.2125C18.3375 14.0708 18.5417 14 18.775 14H19.175C19.4083 14 19.6125 14.075 19.7875 14.225C19.9625 14.375 20.075 14.5667 20.125 14.8L20.275 15.5C20.475 15.5833 20.6667 15.6792 20.85 15.7875C21.0333 15.8958 21.2083 16.0167 21.375 16.15L22.05 15.925C22.2833 15.8417 22.5083 15.8417 22.725 15.925C22.9417 16.0083 23.1083 16.15 23.225 16.35L23.425 16.7C23.5417 16.9 23.5833 17.1167 23.55 17.35C23.5167 17.5833 23.4083 17.775 23.225 17.925L22.675 18.4C22.7083 18.6167 22.725 18.825 22.725 19.025C22.725 19.225 22.7083 19.4333 22.675 19.65L23.225 20.125C23.4083 20.275 23.5167 20.4625 23.55 20.6875C23.5833 20.9125 23.5417 21.125 23.425 21.325L23.2 21.7C23.0833 21.8833 22.925 22.0167 22.725 22.1C22.525 22.1833 22.3167 22.1917 22.1 22.125L21.375 21.9C21.1917 22.0333 21.0125 22.1458 20.8375 22.2375C20.6625 22.3292 20.475 22.4167 20.275 22.5L20.125 23.225C20.075 23.4583 19.9625 23.6458 19.7875 23.7875C19.6125 23.9292 19.4083 24 19.175 24H18.775ZM20.3875 20.4125C20.7792 20.0208 20.975 19.55 20.975 19C20.975 18.45 20.7792 17.9792 20.3875 17.5875C19.9958 17.1958 19.525 17 18.975 17C18.425 17 17.9542 17.1958 17.5625 17.5875C17.1708 17.9792 16.975 18.45 16.975 19C16.975 19.55 17.1708 20.0208 17.5625 20.4125C17.9542 20.8042 18.425 21 18.975 21C19.525 21 19.9958 20.8042 20.3875 20.4125Z" fill="#020617"/>
</svg>
