<svg width="12" height="12" viewBox="0 0 12 12" fill="none" xmlns="http://www.w3.org/2000/svg">
<path d="M4.05 12C3.87222 12 3.70278 11.9667 3.54167 11.9C3.38056 11.8333 3.23889 11.7389 3.11667 11.6167L0.383333 8.88333C0.261111 8.76111 0.166667 8.61944 0.1 8.45833C0.0333333 8.29722 0 8.12778 0 7.95V4.05C0 3.87222 0.0333333 3.70278 0.1 3.54167C0.166667 3.38056 0.261111 3.23889 0.383333 3.11667L3.11667 0.383333C3.23889 0.261111 3.38056 0.166667 3.54167 0.1C3.70278 0.0333333 3.87222 0 4.05 0H7.95C8.12778 0 8.29722 0.0333333 8.45833 0.1C8.61944 0.166667 8.76111 0.261111 8.88333 0.383333L11.6167 3.11667C11.7389 3.23889 11.8333 3.38056 11.9 3.54167C11.9667 3.70278 12 3.87222 12 4.05V7.95C12 8.12778 11.9667 8.29722 11.9 8.45833C11.8333 8.61944 11.7389 8.76111 11.6167 8.88333L8.88333 11.6167C8.76111 11.7389 8.61944 11.8333 8.45833 11.9C8.29722 11.9667 8.12778 12 7.95 12H4.05ZM6 6.93333L7.43333 8.36667C7.55556 8.48889 7.71111 8.55 7.9 8.55C8.08889 8.55 8.24444 8.48889 8.36667 8.36667C8.48889 8.24444 8.55 8.08889 8.55 7.9C8.55 7.71111 8.48889 7.55556 8.36667 7.43333L6.93333 6L8.36667 4.56667C8.48889 4.44444 8.55 4.28889 8.55 4.1C8.55 3.91111 8.48889 3.75556 8.36667 3.63333C8.24444 3.51111 8.08889 3.45 7.9 3.45C7.71111 3.45 7.55556 3.51111 7.43333 3.63333L6 5.06667L4.56667 3.63333C4.44444 3.51111 4.28889 3.45 4.1 3.45C3.91111 3.45 3.75556 3.51111 3.63333 3.63333C3.51111 3.75556 3.45 3.91111 3.45 4.1C3.45 4.28889 3.51111 4.44444 3.63333 4.56667L5.06667 6L3.63333 7.43333C3.51111 7.55556 3.45 7.71111 3.45 7.9C3.45 8.08889 3.51111 8.24444 3.63333 8.36667C3.75556 8.48889 3.91111 8.55 4.1 8.55C4.28889 8.55 4.44444 8.48889 4.56667 8.36667L6 6.93333Z" fill="#DE3412"/>
</svg>
