<svg width="18" height="16" viewBox="0 0 18 16" fill="none" xmlns="http://www.w3.org/2000/svg">
<path d="M1.30354 15.9038C0.945347 15.9038 0.638542 15.776 0.383125 15.5206C0.127708 15.2652 0 14.9584 0 14.6002V4.77771C0 4.42438 0.127708 4.11882 0.383125 3.86104C0.638542 3.60326 0.945347 3.47438 1.30354 3.47438H4.05979L5.20292 2.16917C5.32014 2.02903 5.46368 1.92201 5.63354 1.84813C5.8034 1.7741 5.98542 1.73708 6.17958 1.73708H10.0769C10.2252 1.73708 10.3496 1.7875 10.45 1.88833C10.5503 1.98931 10.6004 2.11431 10.6004 2.26333C10.6004 2.4125 10.5503 2.5366 10.45 2.63563C10.3496 2.73465 10.2252 2.78417 10.0769 2.78417H6.06729L4.53854 4.52125H1.30354C1.22868 4.52125 1.16722 4.54618 1.11917 4.59604C1.07111 4.6459 1.04708 4.70646 1.04708 4.77771V14.6002C1.04708 14.6751 1.07111 14.7365 1.11917 14.7846C1.16722 14.8326 1.22868 14.8567 1.30354 14.8567H14.5298C14.6047 14.8567 14.6661 14.8326 14.7142 14.7846C14.7622 14.7365 14.7863 14.6751 14.7863 14.6002V7.49354C14.7863 7.34521 14.8367 7.22083 14.9377 7.12042C15.0385 7.02014 15.1635 6.97 15.3127 6.97C15.4617 6.97 15.5858 7.02014 15.6848 7.12042C15.7838 7.22083 15.8333 7.34521 15.8333 7.49354V14.6002C15.8333 14.9584 15.7044 15.2652 15.4465 15.5206C15.1887 15.776 14.8831 15.9038 14.5298 15.9038H1.30354ZM14.7863 2.78417H13.5813C13.4329 2.78417 13.3085 2.73368 13.2081 2.63271C13.1078 2.53187 13.0577 2.40687 13.0577 2.25771C13.0577 2.10868 13.1078 1.98465 13.2081 1.88563C13.3085 1.7866 13.4329 1.73708 13.5813 1.73708H14.7863V0.523333C14.7863 0.375139 14.8367 0.250834 14.9377 0.150417C15.0385 0.0501395 15.1635 0 15.3127 0C15.4617 0 15.5858 0.0501395 15.6848 0.150417C15.7838 0.250834 15.8333 0.375139 15.8333 0.523333V1.73708H17.0471C17.1953 1.73708 17.3196 1.7875 17.42 1.88833C17.5203 1.98931 17.5704 2.11431 17.5704 2.26333C17.5704 2.4125 17.5203 2.5366 17.42 2.63563C17.3196 2.73465 17.1953 2.78417 17.0471 2.78417H15.8333V3.98917C15.8333 4.1375 15.7829 4.26188 15.6821 4.36229C15.5811 4.46257 15.4561 4.51271 15.3071 4.51271C15.1579 4.51271 15.0338 4.46257 14.9348 4.36229C14.8358 4.26188 14.7863 4.1375 14.7863 3.98917V2.78417ZM7.91229 13.0127C8.85076 13.0127 9.64076 12.6919 10.2823 12.0504C10.9238 11.4089 11.2446 10.6189 11.2446 9.68042C11.2446 8.74208 10.9238 7.95354 10.2823 7.31479C9.64076 6.67604 8.85076 6.35667 7.91229 6.35667C6.97396 6.35667 6.18542 6.67604 5.54667 7.31479C4.90806 7.95354 4.58875 8.74208 4.58875 9.68042C4.58875 10.6189 4.90806 11.4089 5.54667 12.0504C6.18542 12.6919 6.97396 13.0127 7.91229 13.0127ZM7.91229 11.9656C7.26201 11.9656 6.72 11.7474 6.28625 11.3108C5.8525 10.8742 5.63563 10.3307 5.63563 9.68042C5.63563 9.03014 5.8525 8.48812 6.28625 8.05437C6.72 7.62062 7.26201 7.40375 7.91229 7.40375C8.56271 7.40375 9.10618 7.62062 9.54271 8.05437C9.97938 8.48812 10.1977 9.03014 10.1977 9.68042C10.1977 10.3307 9.97938 10.8742 9.54271 11.3108C9.10618 11.7474 8.56271 11.9656 7.91229 11.9656Z" fill="#03699C"/>
</svg>
