<svg width="20" height="16" viewBox="0 0 20 16" fill="none" xmlns="http://www.w3.org/2000/svg">
<path d="M2 16C1.45 16 0.979167 15.8042 0.5875 15.4125C0.195833 15.0208 0 14.55 0 14V2C0 1.45 0.195833 0.979167 0.5875 0.5875C0.979167 0.195833 1.45 0 2 0H18C18.55 0 19.0208 0.195833 19.4125 0.5875C19.8042 0.979167 20 1.45 20 2V14C20 14.55 19.8042 15.0208 19.4125 15.4125C19.0208 15.8042 18.55 16 18 16H2ZM7.6 10.9C7.78333 11.0333 7.9625 11.1458 8.1375 11.2375C8.3125 11.3292 8.5 11.4167 8.7 11.5L8.85 12.225C8.9 12.4583 9.0125 12.6458 9.1875 12.7875C9.3625 12.9292 9.56667 13 9.8 13H10.2C10.4333 13 10.6375 12.925 10.8125 12.775C10.9875 12.625 11.1 12.4333 11.15 12.2L11.3 11.5C11.5 11.4167 11.6875 11.3292 11.8625 11.2375C12.0375 11.1458 12.2167 11.0333 12.4 10.9L13.125 11.125C13.3417 11.1917 13.5542 11.1833 13.7625 11.1C13.9708 11.0167 14.1333 10.8833 14.25 10.7L14.45 10.35C14.5667 10.15 14.6083 9.93333 14.575 9.7C14.5417 9.46667 14.4333 9.275 14.25 9.125L13.7 8.65C13.7333 8.43333 13.75 8.21667 13.75 8C13.75 7.78333 13.7333 7.56667 13.7 7.35L14.25 6.875C14.4333 6.725 14.5417 6.5375 14.575 6.3125C14.6083 6.0875 14.5667 5.875 14.45 5.675L14.225 5.3C14.1083 5.11667 13.95 4.98333 13.75 4.9C13.55 4.81667 13.3417 4.80833 13.125 4.875L12.4 5.1C12.2167 4.96667 12.0375 4.85417 11.8625 4.7625C11.6875 4.67083 11.5 4.58333 11.3 4.5L11.15 3.775C11.1 3.54167 10.9875 3.35417 10.8125 3.2125C10.6375 3.07083 10.4333 3 10.2 3H9.8C9.56667 3 9.3625 3.075 9.1875 3.225C9.0125 3.375 8.9 3.56667 8.85 3.8L8.7 4.5C8.5 4.58333 8.3125 4.67083 8.1375 4.7625C7.9625 4.85417 7.78333 4.96667 7.6 5.1L6.875 4.875C6.65833 4.80833 6.44583 4.81667 6.2375 4.9C6.02917 4.98333 5.86667 5.11667 5.75 5.3L5.55 5.65C5.43333 5.85 5.39167 6.06667 5.425 6.3C5.45833 6.53333 5.56667 6.725 5.75 6.875L6.3 7.35C6.26667 7.56667 6.25 7.78333 6.25 8C6.25 8.21667 6.26667 8.43333 6.3 8.65L5.75 9.125C5.56667 9.275 5.45833 9.4625 5.425 9.6875C5.39167 9.9125 5.43333 10.125 5.55 10.325L5.775 10.7C5.89167 10.8833 6.05 11.0167 6.25 11.1C6.45 11.1833 6.65833 11.1917 6.875 11.125L7.6 10.9ZM8.5875 9.4125C8.19583 9.02083 8 8.55 8 8C8 7.45 8.19583 6.97917 8.5875 6.5875C8.97917 6.19583 9.45 6 10 6C10.55 6 11.0208 6.19583 11.4125 6.5875C11.8042 6.97917 12 7.45 12 8C12 8.55 11.8042 9.02083 11.4125 9.4125C11.0208 9.80417 10.55 10 10 10C9.45 10 8.97917 9.80417 8.5875 9.4125Z" fill="white"/>
</svg>
