<svg width="16" height="16" viewBox="0 0 16 16" fill="none" xmlns="http://www.w3.org/2000/svg">
<path d="M3.2 13C2.87 13 2.5875 12.8776 2.3525 12.6328C2.1175 12.388 2 12.0938 2 11.75V4.25C2 3.90625 2.1175 3.61198 2.3525 3.36719C2.5875 3.1224 2.87 3 3.2 3H12.8C13.13 3 13.4125 3.1224 13.6475 3.36719C13.8825 3.61198 14 3.90625 14 4.25V11.75C14 12.0938 13.8825 12.388 13.6475 12.6328C13.4125 12.8776 13.13 13 12.8 13H3.2ZM6.56 9.8125C6.67 9.89583 6.7775 9.96615 6.8825 10.0234C6.9875 10.0807 7.1 10.1354 7.22 10.1875L7.31 10.6406C7.34 10.7865 7.4075 10.9036 7.5125 10.9922C7.6175 11.0807 7.74 11.125 7.88 11.125H8.12C8.26 11.125 8.3825 11.0781 8.4875 10.9844C8.5925 10.8906 8.66 10.7708 8.69 10.625L8.78 10.1875C8.9 10.1354 9.0125 10.0807 9.1175 10.0234C9.2225 9.96615 9.33 9.89583 9.44 9.8125L9.875 9.95312C10.005 9.99479 10.1325 9.98958 10.2575 9.9375C10.3825 9.88542 10.48 9.80208 10.55 9.6875L10.67 9.46875C10.74 9.34375 10.765 9.20833 10.745 9.0625C10.725 8.91667 10.66 8.79688 10.55 8.70312L10.22 8.40625C10.24 8.27083 10.25 8.13542 10.25 8C10.25 7.86458 10.24 7.72917 10.22 7.59375L10.55 7.29688C10.66 7.20312 10.725 7.08594 10.745 6.94531C10.765 6.80469 10.74 6.67188 10.67 6.54688L10.535 6.3125C10.465 6.19792 10.37 6.11458 10.25 6.0625C10.13 6.01042 10.005 6.00521 9.875 6.04688L9.44 6.1875C9.33 6.10417 9.2225 6.03385 9.1175 5.97656C9.0125 5.91927 8.9 5.86458 8.78 5.8125L8.69 5.35938C8.66 5.21354 8.5925 5.09635 8.4875 5.00781C8.3825 4.91927 8.26 4.875 8.12 4.875H7.88C7.74 4.875 7.6175 4.92188 7.5125 5.01562C7.4075 5.10938 7.34 5.22917 7.31 5.375L7.22 5.8125C7.1 5.86458 6.9875 5.91927 6.8825 5.97656C6.7775 6.03385 6.67 6.10417 6.56 6.1875L6.125 6.04688C5.995 6.00521 5.8675 6.01042 5.7425 6.0625C5.6175 6.11458 5.52 6.19792 5.45 6.3125L5.33 6.53125C5.26 6.65625 5.235 6.79167 5.255 6.9375C5.275 7.08333 5.34 7.20312 5.45 7.29688L5.78 7.59375C5.76 7.72917 5.75 7.86458 5.75 8C5.75 8.13542 5.76 8.27083 5.78 8.40625L5.45 8.70312C5.34 8.79688 5.275 8.91406 5.255 9.05469C5.235 9.19531 5.26 9.32812 5.33 9.45312L5.465 9.6875C5.535 9.80208 5.63 9.88542 5.75 9.9375C5.87 9.98958 5.995 9.99479 6.125 9.95312L6.56 9.8125ZM7.1525 8.88281C6.9175 8.63802 6.8 8.34375 6.8 8C6.8 7.65625 6.9175 7.36198 7.1525 7.11719C7.3875 6.8724 7.67 6.75 8 6.75C8.33 6.75 8.6125 6.8724 8.8475 7.11719C9.0825 7.36198 9.2 7.65625 9.2 8C9.2 8.34375 9.0825 8.63802 8.8475 8.88281C8.6125 9.1276 8.33 9.25 8 9.25C7.67 9.25 7.3875 9.1276 7.1525 8.88281Z" fill="white"/>
</svg>
