<svg width="32" height="32" viewBox="0 0 32 32" fill="none" xmlns="http://www.w3.org/2000/svg">
<rect width="32" height="32" rx="8" fill="#C78500"/>
<path d="M13 19C11.3333 19 9.91667 18.4167 8.75 17.25C7.58333 16.0833 7 14.6667 7 13C7 12.6667 7.025 12.3333 7.075 12C7.125 11.6667 7.21667 11.35 7.35 11.05C7.43333 10.8833 7.5375 10.7583 7.6625 10.675C7.7875 10.5917 7.925 10.5333 8.075 10.5C8.225 10.4667 8.37917 10.4708 8.5375 10.5125C8.69583 10.5542 8.84167 10.6417 8.975 10.775L11.6 13.4L13.4 11.6L10.775 8.975C10.6417 8.84167 10.5542 8.69583 10.5125 8.5375C10.4708 8.37917 10.4667 8.225 10.5 8.075C10.5333 7.925 10.5917 7.7875 10.675 7.6625C10.7583 7.5375 10.8833 7.43333 11.05 7.35C11.35 7.21667 11.6667 7.125 12 7.075C12.3333 7.025 12.6667 7 13 7C14.6667 7 16.0833 7.58333 17.25 8.75C18.4167 9.91667 19 11.3333 19 13C19 13.3833 18.9667 13.7458 18.9 14.0875C18.8333 14.4292 18.7333 14.7667 18.6 15.1L23.65 20.1C24.1333 20.5833 24.375 21.175 24.375 21.875C24.375 22.575 24.1333 23.1667 23.65 23.65C23.1667 24.1333 22.575 24.375 21.875 24.375C21.175 24.375 20.5833 24.125 20.1 23.625L15.1 18.6C14.7667 18.7333 14.4292 18.8333 14.0875 18.9C13.7458 18.9667 13.3833 19 13 19Z" fill="white"/>
</svg>
