<svg width="16" height="16" viewBox="0 0 16 16" fill="none" xmlns="http://www.w3.org/2000/svg">
<path d="M6.14389 10.2878C4.99281 10.2878 4.01439 9.88489 3.20863 9.07914C2.40288 8.27338 2 7.29496 2 6.14389C2 5.91367 2.01727 5.68345 2.0518 5.45324C2.08633 5.22302 2.14964 5.00432 2.24173 4.79712C2.29928 4.68201 2.37122 4.59568 2.45755 4.53813C2.54388 4.48058 2.63885 4.44029 2.74245 4.41727C2.84604 4.39424 2.95252 4.39712 3.06187 4.4259C3.17122 4.45468 3.27194 4.51511 3.36403 4.60719L5.17698 6.42014L6.42014 5.17698L4.60719 3.36403C4.51511 3.27194 4.45468 3.17122 4.4259 3.06187C4.39712 2.95252 4.39424 2.84604 4.41727 2.74245C4.44029 2.63885 4.48058 2.54388 4.53813 2.45755C4.59568 2.37122 4.68201 2.29928 4.79712 2.24173C5.00432 2.14964 5.22302 2.08633 5.45324 2.0518C5.68345 2.01727 5.91367 2 6.14389 2C7.29496 2 8.27338 2.40288 9.07914 3.20863C9.88489 4.01439 10.2878 4.99281 10.2878 6.14389C10.2878 6.40863 10.2647 6.65899 10.2187 6.89496C10.1727 7.13094 10.1036 7.36403 10.0115 7.59424L13.4993 11.0475C13.8331 11.3813 14 11.7899 14 12.2734C14 12.7568 13.8331 13.1655 13.4993 13.4993C13.1655 13.8331 12.7568 14 12.2734 14C11.7899 14 11.3813 13.8273 11.0475 13.482L7.59424 10.0115C7.36403 10.1036 7.13094 10.1727 6.89496 10.2187C6.65899 10.2647 6.40863 10.2878 6.14389 10.2878Z" fill="white"/>
</svg>
