<svg width="32" height="32" viewBox="0 0 32 32" fill="none" xmlns="http://www.w3.org/2000/svg">
<rect width="32" height="32" rx="8" fill="#DE3412"/>
<path d="M13.075 25C12.8083 25 12.5542 24.95 12.3125 24.85C12.0708 24.75 11.8583 24.6083 11.675 24.425L7.575 20.325C7.39167 20.1417 7.25 19.9292 7.15 19.6875C7.05 19.4458 7 19.1917 7 18.925V13.075C7 12.8083 7.05 12.5542 7.15 12.3125C7.25 12.0708 7.39167 11.8583 7.575 11.675L11.675 7.575C11.8583 7.39167 12.0708 7.25 12.3125 7.15C12.5542 7.05 12.8083 7 13.075 7H18.925C19.1917 7 19.4458 7.05 19.6875 7.15C19.9292 7.25 20.1417 7.39167 20.325 7.575L24.425 11.675C24.6083 11.8583 24.75 12.0708 24.85 12.3125C24.95 12.5542 25 12.8083 25 13.075V18.925C25 19.1917 24.95 19.4458 24.85 19.6875C24.75 19.9292 24.6083 20.1417 24.425 20.325L20.325 24.425C20.1417 24.6083 19.9292 24.75 19.6875 24.85C19.4458 24.95 19.1917 25 18.925 25H13.075ZM16 17.4L18.15 19.55C18.3333 19.7333 18.5667 19.825 18.85 19.825C19.1333 19.825 19.3667 19.7333 19.55 19.55C19.7333 19.3667 19.825 19.1333 19.825 18.85C19.825 18.5667 19.7333 18.3333 19.55 18.15L17.4 16L19.55 13.85C19.7333 13.6667 19.825 13.4333 19.825 13.15C19.825 12.8667 19.7333 12.6333 19.55 12.45C19.3667 12.2667 19.1333 12.175 18.85 12.175C18.5667 12.175 18.3333 12.2667 18.15 12.45L16 14.6L13.85 12.45C13.6667 12.2667 13.4333 12.175 13.15 12.175C12.8667 12.175 12.6333 12.2667 12.45 12.45C12.2667 12.6333 12.175 12.8667 12.175 13.15C12.175 13.4333 12.2667 13.6667 12.45 13.85L14.6 16L12.45 18.15C12.2667 18.3333 12.175 18.5667 12.175 18.85C12.175 19.1333 12.2667 19.3667 12.45 19.55C12.6333 19.7333 12.8667 19.825 13.15 19.825C13.4333 19.825 13.6667 19.7333 13.85 19.55L16 17.4Z" fill="white"/>
</svg>
