<svg width="15" height="13" viewBox="0 0 15 13" fill="none" xmlns="http://www.w3.org/2000/svg">
<path d="M1.07125 13C0.773458 13 0.520467 12.8937 0.31228 12.6812C0.104093 12.4688 0 12.2107 0 11.9068V1.08637C0 0.782484 0.104093 0.525451 0.31228 0.31527C0.520467 0.10509 0.773458 0 1.07125 0H6.31931C6.6171 0 6.87009 0.106125 7.07828 0.318376C7.28647 0.530626 7.39056 0.788556 7.39056 1.09217V2.98089H13.9287C14.2265 2.98089 14.4795 3.08709 14.6877 3.29947C14.8959 3.512 15 3.77021 15 4.07409V11.9134C15 12.2173 14.8959 12.4744 14.6877 12.6847C14.4795 12.8949 14.2265 13 13.9287 13H1.07125ZM1.05562 11.9236H6.33494V10.0191H1.05562V11.9236ZM1.05562 8.94267H6.33494V7.03822H1.05562V8.94267ZM1.05562 5.96178H6.33494V4.05732H1.05562V5.96178ZM1.05562 2.98089H6.33494V1.07643H1.05562V2.98089ZM7.39056 11.9236H13.9444V4.05732H7.39056V11.9236ZM9.53672 7.03822C9.38715 7.03822 9.26174 6.98702 9.16049 6.88462C9.05937 6.78222 9.00881 6.65532 9.00881 6.50393C9.00881 6.35268 9.05937 6.22447 9.16049 6.11932C9.26174 6.01429 9.38715 5.96178 9.53672 5.96178H11.6421C11.7917 5.96178 11.917 6.01298 12.0181 6.11538C12.1194 6.21764 12.17 6.34447 12.17 6.49586C12.17 6.64725 12.1194 6.77546 12.0181 6.88048C11.917 6.98564 11.7917 7.03822 11.6421 7.03822H9.53672ZM9.53672 10.0191C9.38715 10.0191 9.26174 9.96791 9.16049 9.86551C9.05937 9.76311 9.00881 9.63622 9.00881 9.48482C9.00881 9.33357 9.05937 9.20537 9.16049 9.10021C9.26174 8.99519 9.38715 8.94267 9.53672 8.94267H11.6421C11.7917 8.94267 11.917 8.99387 12.0181 9.09627C12.1194 9.19853 12.17 9.32536 12.17 9.47675C12.17 9.62814 12.1194 9.75635 12.0181 9.86137C11.917 9.96653 11.7917 10.0191 11.6421 10.0191H9.53672Z" fill="#1E293B"/>
</svg>
