<svg width="24" height="22" viewBox="0 0 24 22" fill="none" xmlns="http://www.w3.org/2000/svg">
<path d="M14.6 17.9L13.875 18.125C13.6583 18.1917 13.4458 18.1833 13.2375 18.1C13.0292 18.0167 12.8667 17.8833 12.75 17.7L12.55 17.35C12.4333 17.15 12.3917 16.9333 12.425 16.7C12.4583 16.4667 12.5667 16.275 12.75 16.125L13.3 15.65C13.2667 15.4333 13.25 15.2167 13.25 15C13.25 14.7833 13.2667 14.5667 13.3 14.35L12.75 13.875C12.5667 13.725 12.4583 13.5375 12.425 13.3125C12.3917 13.0875 12.4333 12.875 12.55 12.675L12.775 12.3C12.8917 12.1167 13.05 11.9833 13.25 11.9C13.45 11.8167 13.6583 11.8083 13.875 11.875L14.6 12.1C14.7833 11.9667 14.9625 11.8542 15.1375 11.7625C15.3125 11.6708 15.5 11.5833 15.7 11.5L15.85 10.775C15.9 10.5417 16.0125 10.3542 16.1875 10.2125C16.3625 10.0708 16.5667 10 16.8 10H17.2C17.4333 10 17.6375 10.075 17.8125 10.225C17.9875 10.375 18.1 10.5667 18.15 10.8L18.3 11.5C18.5 11.5833 18.6875 11.6708 18.8625 11.7625C19.0375 11.8542 19.2167 11.9667 19.4 12.1L20.125 11.875C20.3417 11.8083 20.5542 11.8167 20.7625 11.9C20.9708 11.9833 21.1333 12.1167 21.25 12.3L21.45 12.65C21.5667 12.85 21.6083 13.0667 21.575 13.3C21.5417 13.5333 21.4333 13.725 21.25 13.875L20.7 14.35C20.7333 14.5667 20.75 14.7833 20.75 15C20.75 15.2167 20.7333 15.4333 20.7 15.65L21.25 16.125C21.4333 16.275 21.5417 16.4625 21.575 16.6875C21.6083 16.9125 21.5667 17.125 21.45 17.325L21.225 17.7C21.1083 17.8833 20.95 18.0167 20.75 18.1C20.55 18.1833 20.3417 18.1917 20.125 18.125L19.4 17.9C19.2167 18.0333 19.0375 18.1458 18.8625 18.2375C18.6875 18.3292 18.5 18.4167 18.3 18.5L18.15 19.225C18.1 19.4583 17.9875 19.6458 17.8125 19.7875C17.6375 19.9292 17.4333 20 17.2 20H16.8C16.5667 20 16.3625 19.925 16.1875 19.775C16.0125 19.625 15.9 19.4333 15.85 19.2L15.7 18.5C15.5 18.4167 15.3125 18.3292 15.1375 18.2375C14.9625 18.1458 14.7833 18.0333 14.6 17.9ZM18.4125 16.4125C18.8042 16.0208 19 15.55 19 15C19 14.45 18.8042 13.9792 18.4125 13.5875C18.0208 13.1958 17.55 13 17 13C16.45 13 15.9792 13.1958 15.5875 13.5875C15.1958 13.9792 15 14.45 15 15C15 15.55 15.1958 16.0208 15.5875 16.4125C15.9792 16.8042 16.45 17 17 17C17.55 17 18.0208 16.8042 18.4125 16.4125ZM10 8V3C10 2.71667 10.0958 2.47917 10.2875 2.2875C10.4792 2.09583 10.7167 2 11 2H20C20.2833 2 20.5208 2.09583 20.7125 2.2875C20.9042 2.47917 21 2.71667 21 3V8C21 8.28333 20.9042 8.52083 20.7125 8.7125C20.5208 8.90417 20.2833 9 20 9H11C10.7167 9 10.4792 8.90417 10.2875 8.7125C10.0958 8.52083 10 8.28333 10 8ZM1 17V12C1 11.7167 1.09583 11.4792 1.2875 11.2875C1.47917 11.0958 1.71667 11 2 11H10C10.2833 11 10.5208 11.0958 10.7125 11.2875C10.9042 11.4792 11 11.7167 11 12V17C11 17.2833 10.9042 17.5208 10.7125 17.7125C10.5208 17.9042 10.2833 18 10 18H2C1.71667 18 1.47917 17.9042 1.2875 17.7125C1.09583 17.5208 1 17.2833 1 17ZM1 8V3C1 2.71667 1.09583 2.47917 1.2875 2.2875C1.47917 2.09583 1.71667 2 2 2H7C7.28333 2 7.52083 2.09583 7.7125 2.2875C7.90417 2.47917 8 2.71667 8 3V8C8 8.28333 7.90417 8.52083 7.7125 8.7125C7.52083 8.90417 7.28333 9 7 9H2C1.71667 9 1.47917 8.90417 1.2875 8.7125C1.09583 8.52083 1 8.28333 1 8Z" fill="#020617"/>
</svg>
