<svg width="32" height="32" viewBox="0 0 32 32" fill="none" xmlns="http://www.w3.org/2000/svg">
<rect width="32" height="32" rx="8" fill="#228738"/>
<path d="M8 24C7.45 24 6.97917 23.8042 6.5875 23.4125C6.19583 23.0208 6 22.55 6 22V10C6 9.45 6.19583 8.97917 6.5875 8.5875C6.97917 8.19583 7.45 8 8 8H24C24.55 8 25.0208 8.19583 25.4125 8.5875C25.8042 8.97917 26 9.45 26 10V22C26 22.55 25.8042 23.0208 25.4125 23.4125C25.0208 23.8042 24.55 24 24 24H8ZM13.6 18.9C13.7833 19.0333 13.9625 19.1458 14.1375 19.2375C14.3125 19.3292 14.5 19.4167 14.7 19.5L14.85 20.225C14.9 20.4583 15.0125 20.6458 15.1875 20.7875C15.3625 20.9292 15.5667 21 15.8 21H16.2C16.4333 21 16.6375 20.925 16.8125 20.775C16.9875 20.625 17.1 20.4333 17.15 20.2L17.3 19.5C17.5 19.4167 17.6875 19.3292 17.8625 19.2375C18.0375 19.1458 18.2167 19.0333 18.4 18.9L19.125 19.125C19.3417 19.1917 19.5542 19.1833 19.7625 19.1C19.9708 19.0167 20.1333 18.8833 20.25 18.7L20.45 18.35C20.5667 18.15 20.6083 17.9333 20.575 17.7C20.5417 17.4667 20.4333 17.275 20.25 17.125L19.7 16.65C19.7333 16.4333 19.75 16.2167 19.75 16C19.75 15.7833 19.7333 15.5667 19.7 15.35L20.25 14.875C20.4333 14.725 20.5417 14.5375 20.575 14.3125C20.6083 14.0875 20.5667 13.875 20.45 13.675L20.225 13.3C20.1083 13.1167 19.95 12.9833 19.75 12.9C19.55 12.8167 19.3417 12.8083 19.125 12.875L18.4 13.1C18.2167 12.9667 18.0375 12.8542 17.8625 12.7625C17.6875 12.6708 17.5 12.5833 17.3 12.5L17.15 11.775C17.1 11.5417 16.9875 11.3542 16.8125 11.2125C16.6375 11.0708 16.4333 11 16.2 11H15.8C15.5667 11 15.3625 11.075 15.1875 11.225C15.0125 11.375 14.9 11.5667 14.85 11.8L14.7 12.5C14.5 12.5833 14.3125 12.6708 14.1375 12.7625C13.9625 12.8542 13.7833 12.9667 13.6 13.1L12.875 12.875C12.6583 12.8083 12.4458 12.8167 12.2375 12.9C12.0292 12.9833 11.8667 13.1167 11.75 13.3L11.55 13.65C11.4333 13.85 11.3917 14.0667 11.425 14.3C11.4583 14.5333 11.5667 14.725 11.75 14.875L12.3 15.35C12.2667 15.5667 12.25 15.7833 12.25 16C12.25 16.2167 12.2667 16.4333 12.3 16.65L11.75 17.125C11.5667 17.275 11.4583 17.4625 11.425 17.6875C11.3917 17.9125 11.4333 18.125 11.55 18.325L11.775 18.7C11.8917 18.8833 12.05 19.0167 12.25 19.1C12.45 19.1833 12.6583 19.1917 12.875 19.125L13.6 18.9ZM14.5875 17.4125C14.1958 17.0208 14 16.55 14 16C14 15.45 14.1958 14.9792 14.5875 14.5875C14.9792 14.1958 15.45 14 16 14C16.55 14 17.0208 14.1958 17.4125 14.5875C17.8042 14.9792 18 15.45 18 16C18 16.55 17.8042 17.0208 17.4125 17.4125C17.0208 17.8042 16.55 18 16 18C15.45 18 14.9792 17.8042 14.5875 17.4125Z" fill="white"/>
</svg>
