<svg width="17" height="17" viewBox="0 0 17 17" fill="none" xmlns="http://www.w3.org/2000/svg">
<path d="M1.80775 17C1.30258 17 0.875 16.825 0.525 16.475C0.175 16.125 0 15.6974 0 15.1923V1.80775C0 1.30258 0.175 0.875 0.525 0.525C0.875 0.175 1.30258 0 1.80775 0H10.1538C9.87175 0.407667 9.66025 0.845834 9.51925 1.3145C9.37825 1.783 9.30775 2.2615 9.30775 2.75C9.30775 4.1205 9.78883 5.28683 10.751 6.249C11.7132 7.21117 12.8795 7.69225 14.25 7.69225C14.7385 7.69225 15.217 7.62175 15.6855 7.48075C16.1542 7.33975 16.5923 7.12825 17 6.84625V15.1923C17 15.6974 16.825 16.125 16.475 16.475C16.125 16.825 15.6974 17 15.1923 17H1.80775ZM2.88475 13.1923H14.1152L10.625 8.5385L7.625 12.4327L5.5 9.73075L2.88475 13.1923ZM13.5 5.5V3.5H11.5V2H13.5V0H15V2H17V3.5H15V5.5H13.5Z" fill="#7EBFFF"/>
</svg>
