<svg width="40" height="40" viewBox="0 0 40 40" fill="none" xmlns="http://www.w3.org/2000/svg">
<rect x="1" y="1" width="38" height="38" rx="19" stroke="#047BB6" stroke-width="2"/>
<rect x="4" y="4" width="32" height="32" rx="16" fill="#7EBFFF"/>
<path d="M20 19.5C26.0751 19.5 31 24.4249 31 30.5C31 30.8976 30.9776 31.2901 30.9365 31.6768C28.0755 34.3575 24.23 36 20 36C15.7698 36 11.9235 34.3577 9.0625 31.6768C9.02138 31.2901 9 30.8975 9 30.5C9 24.4249 13.9249 19.5 20 19.5Z" fill="#002236"/>
<path d="M20 8.5C22.7614 8.5 25 10.7386 25 13.5C25 16.2614 22.7614 18.5 20 18.5C17.2386 18.5 15 16.2614 15 13.5C15 10.7386 17.2386 8.5 20 8.5Z" fill="#002236"/>
</svg>
