<svg width="16" height="16" viewBox="0 0 16 16" fill="none" xmlns="http://www.w3.org/2000/svg">
<path d="M6.45002 9.13594L7.03335 7.23594L5.50002 6.0026H7.40002L8.00002 4.13594L8.60002 6.0026H10.5L8.95002 7.23594L9.53335 9.13594L8.00002 7.9526L6.45002 9.13594ZM4.00002 15.3359V10.1859C3.5778 9.71927 3.25002 9.18594 3.01669 8.58594C2.78335 7.98594 2.66669 7.34705 2.66669 6.66927C2.66669 5.18038 3.18335 3.91927 4.21669 2.88594C5.25002 1.8526 6.51113 1.33594 8.00002 1.33594C9.48891 1.33594 10.75 1.8526 11.7834 2.88594C12.8167 3.91927 13.3334 5.18038 13.3334 6.66927C13.3334 7.34705 13.2167 7.98594 12.9834 8.58594C12.75 9.18594 12.4222 9.71927 12 10.1859V15.3359L8.00002 14.0026L4.00002 15.3359ZM10.8334 9.5026C11.6111 8.72483 12 7.78038 12 6.66927C12 5.55816 11.6111 4.61372 10.8334 3.83594C10.0556 3.05816 9.11113 2.66927 8.00002 2.66927C6.88891 2.66927 5.94446 3.05816 5.16669 3.83594C4.38891 4.61372 4.00002 5.55816 4.00002 6.66927C4.00002 7.78038 4.38891 8.72483 5.16669 9.5026C5.94446 10.2804 6.88891 10.6693 8.00002 10.6693C9.11113 10.6693 10.0556 10.2804 10.8334 9.5026Z" fill="#94A3B8"/>
</svg>
