<svg width="15" height="15" viewBox="0 0 15 15" fill="none" xmlns="http://www.w3.org/2000/svg">
<path d="M7.50847 15C5.425 15 3.65272 14.2695 2.19163 12.8084C0.730544 11.3473 0 9.575 0 7.49153C0 5.42359 0.730544 3.65807 2.19163 2.19496C3.65272 0.731654 5.425 0 7.50847 0C9.57621 0 11.3417 0.731654 12.805 2.19496C14.2683 3.65807 15 5.42359 15 7.49153C15 9.575 14.2683 11.3473 12.805 12.8084C11.3417 14.2695 9.57621 15 7.50847 15ZM7.48488 14.0323C9.30948 14.0323 10.8569 13.4022 12.127 12.1421C13.3972 10.8821 14.0323 9.33972 14.0323 7.51512C14.0323 5.69052 13.3972 4.14315 12.127 2.87298C10.8569 1.60282 9.31452 0.967742 7.5 0.967742C5.66532 0.967742 4.11794 1.60282 2.85786 2.87298C1.59778 4.14315 0.967742 5.68548 0.967742 7.5C0.967742 9.33468 1.59778 10.8821 2.85786 12.1421C4.11794 13.4022 5.66028 14.0323 7.48488 14.0323ZM7.97782 7.32974V4.00373C7.97782 3.86603 7.93085 3.7505 7.8369 3.65716C7.74294 3.56401 7.62823 3.51744 7.49274 3.51744C7.35726 3.51744 7.24395 3.563 7.15282 3.65413C7.06169 3.74546 7.01613 3.85857 7.01613 3.99345V7.33276C7.01613 7.43901 7.02964 7.54506 7.05665 7.65091C7.08387 7.75655 7.1499 7.8622 7.25474 7.96784L9.87641 10.585C9.97319 10.6949 10.0842 10.7498 10.2094 10.7498C10.3344 10.7498 10.4501 10.6932 10.5566 10.5801C10.6699 10.4735 10.7265 10.3615 10.7265 10.2442C10.7265 10.1268 10.6714 10.0133 10.5611 9.90363L7.97782 7.32974Z" fill="#1E293B"/>
</svg>
