<svg width="12" height="10" viewBox="0 0 12 10" fill="none" xmlns="http://www.w3.org/2000/svg">
<path d="M1.2 10C0.87 10 0.5875 9.8776 0.3525 9.63281C0.1175 9.38802 0 9.09375 0 8.75V1.25C0 0.90625 0.1175 0.611979 0.3525 0.367188C0.5875 0.122396 0.87 0 1.2 0H10.8C11.13 0 11.4125 0.122396 11.6475 0.367188C11.8825 0.611979 12 0.90625 12 1.25V8.75C12 9.09375 11.8825 9.38802 11.6475 9.63281C11.4125 9.8776 11.13 10 10.8 10H1.2ZM4.56 6.8125C4.67 6.89583 4.7775 6.96615 4.8825 7.02344C4.9875 7.08073 5.1 7.13542 5.22 7.1875L5.31 7.64062C5.34 7.78646 5.4075 7.90365 5.5125 7.99219C5.6175 8.08073 5.74 8.125 5.88 8.125H6.12C6.26 8.125 6.3825 8.07812 6.4875 7.98438C6.5925 7.89062 6.66 7.77083 6.69 7.625L6.78 7.1875C6.9 7.13542 7.0125 7.08073 7.1175 7.02344C7.2225 6.96615 7.33 6.89583 7.44 6.8125L7.875 6.95312C8.005 6.99479 8.1325 6.98958 8.2575 6.9375C8.3825 6.88542 8.48 6.80208 8.55 6.6875L8.67 6.46875C8.74 6.34375 8.765 6.20833 8.745 6.0625C8.725 5.91667 8.66 5.79688 8.55 5.70312L8.22 5.40625C8.24 5.27083 8.25 5.13542 8.25 5C8.25 4.86458 8.24 4.72917 8.22 4.59375L8.55 4.29688C8.66 4.20312 8.725 4.08594 8.745 3.94531C8.765 3.80469 8.74 3.67188 8.67 3.54688L8.535 3.3125C8.465 3.19792 8.37 3.11458 8.25 3.0625C8.13 3.01042 8.005 3.00521 7.875 3.04688L7.44 3.1875C7.33 3.10417 7.2225 3.03385 7.1175 2.97656C7.0125 2.91927 6.9 2.86458 6.78 2.8125L6.69 2.35938C6.66 2.21354 6.5925 2.09635 6.4875 2.00781C6.3825 1.91927 6.26 1.875 6.12 1.875H5.88C5.74 1.875 5.6175 1.92188 5.5125 2.01562C5.4075 2.10938 5.34 2.22917 5.31 2.375L5.22 2.8125C5.1 2.86458 4.9875 2.91927 4.8825 2.97656C4.7775 3.03385 4.67 3.10417 4.56 3.1875L4.125 3.04688C3.995 3.00521 3.8675 3.01042 3.7425 3.0625C3.6175 3.11458 3.52 3.19792 3.45 3.3125L3.33 3.53125C3.26 3.65625 3.235 3.79167 3.255 3.9375C3.275 4.08333 3.34 4.20312 3.45 4.29688L3.78 4.59375C3.76 4.72917 3.75 4.86458 3.75 5C3.75 5.13542 3.76 5.27083 3.78 5.40625L3.45 5.70312C3.34 5.79688 3.275 5.91406 3.255 6.05469C3.235 6.19531 3.26 6.32812 3.33 6.45312L3.465 6.6875C3.535 6.80208 3.63 6.88542 3.75 6.9375C3.87 6.98958 3.995 6.99479 4.125 6.95312L4.56 6.8125ZM5.1525 5.88281C4.9175 5.63802 4.8 5.34375 4.8 5C4.8 4.65625 4.9175 4.36198 5.1525 4.11719C5.3875 3.8724 5.67 3.75 6 3.75C6.33 3.75 6.6125 3.8724 6.8475 4.11719C7.0825 4.36198 7.2 4.65625 7.2 5C7.2 5.34375 7.0825 5.63802 6.8475 5.88281C6.6125 6.1276 6.33 6.25 6 6.25C5.67 6.25 5.3875 6.1276 5.1525 5.88281Z" fill="#228738"/>
</svg>
