<svg width="12" height="12" viewBox="0 0 12 12" fill="none" xmlns="http://www.w3.org/2000/svg">
<path d="M4.14389 8.28777C2.99281 8.28777 2.01439 7.88489 1.20863 7.07914C0.402878 6.27338 0 5.29496 0 4.14389C0 3.91367 0.0172662 3.68345 0.0517986 3.45324C0.0863309 3.22302 0.14964 3.00432 0.241727 2.79712C0.299281 2.68201 0.371223 2.59568 0.457554 2.53813C0.543885 2.48058 0.638849 2.44029 0.742446 2.41727C0.846043 2.39424 0.952518 2.39712 1.06187 2.4259C1.17122 2.45468 1.27194 2.51511 1.36403 2.60719L3.17698 4.42014L4.42014 3.17698L2.60719 1.36403C2.51511 1.27194 2.45468 1.17122 2.4259 1.06187C2.39712 0.952518 2.39424 0.846043 2.41727 0.742446C2.44029 0.638849 2.48058 0.543885 2.53813 0.457554C2.59568 0.371223 2.68201 0.299281 2.79712 0.241727C3.00432 0.14964 3.22302 0.0863309 3.45324 0.0517986C3.68345 0.0172662 3.91367 0 4.14389 0C5.29496 0 6.27338 0.402878 7.07914 1.20863C7.88489 2.01439 8.28777 2.99281 8.28777 4.14389C8.28777 4.40863 8.26475 4.65899 8.21871 4.89496C8.17266 5.13094 8.1036 5.36403 8.01151 5.59424L11.4993 9.04748C11.8331 9.3813 12 9.78993 12 10.2734C12 10.7568 11.8331 11.1655 11.4993 11.4993C11.1655 11.8331 10.7568 12 10.2734 12C9.78993 12 9.3813 11.8273 9.04748 11.482L5.59424 8.01151C5.36403 8.1036 5.13094 8.17266 4.89496 8.21871C4.65899 8.26475 4.40863 8.28777 4.14389 8.28777Z" fill="#C78500"/>
</svg>
