<svg width="20" height="10" viewBox="0 0 20 10" fill="none" xmlns="http://www.w3.org/2000/svg">
<g clip-path="url(#clip0_468_8440)">
<path d="M1 10C0.716667 10 0.479167 9.90417 0.2875 9.7125C0.0958333 9.52083 0 9.28333 0 9V1C0 0.716667 0.0958333 0.479167 0.2875 0.2875C0.479167 0.0958333 0.716667 0 1 0H12.45C12.7333 0 12.9708 0.0958333 13.1625 0.2875C13.3542 0.479167 13.45 0.716667 13.45 1L10.325 4.875C9.825 5.50833 9.74583 6.1875 10.0875 6.9125C10.4292 7.6375 11.0083 8 11.825 8C12.1083 8 12.3458 8.09583 12.5375 8.2875C12.7292 8.47917 12.825 8.71667 12.825 9C12.825 9.28333 12.7292 9.52083 12.5375 9.7125C12.3458 9.90417 12.1083 10 11.825 10H1ZM15.375 6H13.05C12.8333 6 12.6792 5.90833 12.5875 5.725C12.4958 5.54167 12.5167 5.36667 12.65 5.2L16.25 0.675C16.3333 0.575 16.4292 0.516667 16.5375 0.5C16.6458 0.483333 16.75 0.491667 16.85 0.525C16.95 0.558333 17.0333 0.625 17.1 0.725C17.1667 0.825 17.1833 0.941667 17.15 1.075L16.625 4H18.95C19.1667 4 19.3208 4.09167 19.4125 4.275C19.5042 4.45833 19.4833 4.63333 19.35 4.8L15.75 9.325C15.6667 9.425 15.5708 9.48333 15.4625 9.5C15.3542 9.51667 15.25 9.50833 15.15 9.475C15.05 9.44167 14.9667 9.375 14.9 9.275C14.8333 9.175 14.8167 9.05833 14.85 8.925L15.375 6Z" fill="#228738"/>
</g>
<defs>
<clipPath id="clip0_468_8440">
<rect width="19.4685" height="10" fill="white"/>
</clipPath>
</defs>
</svg>
