<svg width="20" height="10" viewBox="0 0 20 10" fill="none" xmlns="http://www.w3.org/2000/svg">
<g clip-path="url(#clip0_468_8461)">
<path d="M0.594482 10C0.311149 10 0.0736491 9.90417 -0.118018 9.7125C-0.309684 9.52083 -0.405518 9.28333 -0.405518 9V1C-0.405518 0.716667 -0.309684 0.479167 -0.118018 0.2875C0.0736491 0.0958333 0.311149 0 0.594482 0H12.0445C12.3278 0 12.5653 0.0958333 12.757 0.2875C12.9486 0.479167 13.0445 0.716667 13.0445 1C13.0445 1.28333 12.9486 1.52083 12.757 1.7125C12.5653 1.90417 12.3278 2 12.0445 2H4.59448V8H11.4195C11.7028 8 11.9403 8.09583 12.132 8.2875C12.3236 8.47917 12.4195 8.71667 12.4195 9C12.4195 9.28333 12.3236 9.52083 12.132 9.7125C11.9403 9.90417 11.7028 10 11.4195 10H0.594482ZM14.9695 6H12.6445C12.4278 6 12.2736 5.90833 12.182 5.725C12.0903 5.54167 12.1111 5.36667 12.2445 5.2L15.8445 0.675C15.9278 0.575 16.0236 0.516667 16.132 0.5C16.2403 0.483333 16.3445 0.491667 16.4445 0.525C16.5445 0.558333 16.6278 0.625 16.6945 0.725C16.7611 0.825 16.7778 0.941667 16.7445 1.075L16.2195 4H18.5445C18.7611 4 18.9153 4.09167 19.007 4.275C19.0986 4.45833 19.0778 4.63333 18.9445 4.8L15.3445 9.325C15.2611 9.425 15.1653 9.48333 15.057 9.5C14.9486 9.51667 14.8445 9.50833 14.7445 9.475C14.6445 9.44167 14.5611 9.375 14.4945 9.275C14.4278 9.175 14.4111 9.05833 14.4445 8.925L14.9695 6Z" fill="#DE3412"/>
</g>
<defs>
<clipPath id="clip0_468_8461">
<rect width="19.4685" height="10" fill="white"/>
</clipPath>
</defs>
</svg>
