<svg width="20" height="10" viewBox="0 0 20 10" fill="none" xmlns="http://www.w3.org/2000/svg">
<g clip-path="url(#clip0_468_8454)">
<path d="M0.531494 10C0.248161 10 0.0106608 9.90417 -0.181006 9.7125C-0.372673 9.52083 -0.468506 9.28333 -0.468506 9V1C-0.468506 0.716667 -0.372673 0.479167 -0.181006 0.2875C0.0106608 0.0958333 0.248161 0 0.531494 0H11.9815C12.2648 0 12.5023 0.0958333 12.694 0.2875C12.8857 0.479167 12.9815 0.716667 12.9815 1C12.9815 1.28333 12.8857 1.52083 12.694 1.7125C12.5023 1.90417 12.2648 2 11.9815 2H6.53149V8H11.3565C11.6398 8 11.8773 8.09583 12.069 8.2875C12.2607 8.47917 12.3565 8.71667 12.3565 9C12.3565 9.28333 12.2607 9.52083 12.069 9.7125C11.8773 9.90417 11.6398 10 11.3565 10H0.531494ZM14.9065 6H12.5815C12.3648 6 12.2107 5.90833 12.119 5.725C12.0273 5.54167 12.0482 5.36667 12.1815 5.2L15.7815 0.675C15.8648 0.575 15.9607 0.516667 16.069 0.5C16.1773 0.483333 16.2815 0.491667 16.3815 0.525C16.4815 0.558333 16.5648 0.625 16.6315 0.725C16.6982 0.825 16.7148 0.941667 16.6815 1.075L16.1565 4H18.4815C18.6982 4 18.8523 4.09167 18.944 4.275C19.0357 4.45833 19.0148 4.63333 18.8815 4.8L15.2815 9.325C15.1982 9.425 15.1023 9.48333 14.994 9.5C14.8857 9.51667 14.7815 9.50833 14.6815 9.475C14.5815 9.44167 14.4982 9.375 14.4315 9.275C14.3648 9.175 14.3482 9.05833 14.3815 8.925L14.9065 6Z" fill="#FF6D00"/>
</g>
<defs>
<clipPath id="clip0_468_8454">
<rect width="19.4685" height="10" fill="white"/>
</clipPath>
</defs>
</svg>
