<svg width="20" height="10" viewBox="0 0 20 10" fill="none" xmlns="http://www.w3.org/2000/svg">
<g clip-path="url(#clip0_468_8468)">
<path d="M17.126 10C17.4093 10 17.6468 9.90417 17.8385 9.7125C18.0301 9.52083 18.126 9.28333 18.126 9V7H19.126C19.4093 7 19.6468 6.90417 19.8385 6.7125C20.0301 6.52083 20.126 6.28333 20.126 6V4C20.126 3.71667 20.0301 3.47917 19.8385 3.2875C19.6468 3.09583 19.4093 3 19.126 3H18.126V1C18.126 0.716667 18.0301 0.479167 17.8385 0.2875C17.6468 0.0958333 17.4093 0 17.126 0H1.12598C0.842644 0 0.605145 0.0958333 0.413477 0.2875C0.221809 0.479167 0.125977 0.716667 0.125977 1V9C0.125977 9.28333 0.221809 9.52083 0.413477 9.7125C0.605145 9.90417 0.842644 10 1.12598 10H17.126ZM16.126 8H2.12598V2H16.126V8Z" fill="#4A0404"/>
</g>
<defs>
<clipPath id="clip0_468_8468">
<rect width="19.4685" height="10" fill="white"/>
</clipPath>
</defs>
</svg>
