<svg width="32" height="32" viewBox="0 0 32 32" fill="none" xmlns="http://www.w3.org/2000/svg">
<path d="M19.25 22.6092L17.6379 21.0129C17.4313 20.8063 17.1839 20.696 16.8958 20.6821C16.6078 20.6682 16.3551 20.7699 16.1379 20.9871C15.9207 21.2043 15.8121 21.4543 15.8121 21.7371C15.8121 22.0199 15.9207 22.2699 16.1379 22.4871L18.3367 24.6858C18.5967 24.9458 18.9011 25.0758 19.25 25.0758C19.5989 25.0758 19.9033 24.9458 20.1633 24.6858L25.9125 18.9038C26.1119 18.6974 26.2146 18.4543 26.2204 18.1746C26.2265 17.8951 26.121 17.6456 25.9038 17.4258C25.6865 17.2167 25.4408 17.1107 25.1667 17.1079C24.8925 17.1051 24.6468 17.2124 24.4296 17.4296L19.25 22.6092ZM9.27333 20.4167H10.7371C11.0499 20.4167 11.3186 20.3043 11.5433 20.0796C11.7681 19.8549 11.8804 19.5842 11.8804 19.2675C11.8804 18.9511 11.7681 18.6807 11.5433 18.4563C11.3186 18.2318 11.0499 18.1196 10.7371 18.1196H9.27333C8.95361 18.1196 8.68139 18.2319 8.45667 18.4567C8.23194 18.6814 8.11958 18.9521 8.11958 19.2688C8.11958 19.5854 8.23194 19.8558 8.45667 20.08C8.68139 20.3044 8.95361 20.4167 9.27333 20.4167ZM9.16667 15.2138H17.5C17.8014 15.2138 18.0513 15.1146 18.2496 14.9163C18.4479 14.7176 18.5471 14.4676 18.5471 14.1663C18.5471 13.8646 18.4479 13.6147 18.2496 13.4167C18.0513 13.2186 17.8014 13.1196 17.5 13.1196H9.16667C8.86528 13.1196 8.61542 13.2188 8.41708 13.4171C8.21875 13.6157 8.11958 13.8657 8.11958 14.1671C8.11958 14.4688 8.21875 14.7186 8.41708 14.9167C8.61542 15.1147 8.86528 15.2138 9.16667 15.2138ZM9.16667 10.2138H17.5C17.8014 10.2138 18.0513 10.1146 18.2496 9.91625C18.4479 9.71764 18.5471 9.46764 18.5471 9.16625C18.5471 8.86458 18.4479 8.61472 18.2496 8.41667C18.0513 8.21861 17.8014 8.11958 17.5 8.11958H9.16667C8.86528 8.11958 8.61542 8.21875 8.41708 8.41708C8.21875 8.6157 8.11958 8.8657 8.11958 9.16708C8.11958 9.46875 8.21875 9.71861 8.41708 9.91667C8.61542 10.1147 8.86528 10.2138 9.16667 10.2138ZM15.8363 31.6667C13.6576 31.6667 11.6067 31.2511 9.68333 30.42C7.76 29.5889 6.08097 28.4564 4.64625 27.0225C3.21181 25.5883 2.07875 23.91 1.24708 21.9875C0.415694 20.065 0 18.0146 0 15.8363C0 13.6463 0.415555 11.5878 1.24667 9.66083C2.07778 7.73389 3.21028 6.05778 4.64417 4.6325C6.07833 3.20722 7.75667 2.07875 9.67917 1.24708C11.6017 0.415694 13.6521 0 15.8304 0C18.0204 0 20.0789 0.415555 22.0058 1.24667C23.9328 2.07778 25.6089 3.20569 27.0342 4.63042C28.4594 6.05514 29.5879 7.73056 30.4196 9.65667C31.251 11.5828 31.6667 13.6407 31.6667 15.8304C31.6667 18.009 31.2511 20.06 30.42 21.9833C29.5889 23.9067 28.461 25.5857 27.0363 27.0204C25.6115 28.4549 23.9361 29.5879 22.01 30.4196C20.0839 31.251 18.026 31.6667 15.8363 31.6667ZM15.8333 29.5725C19.6608 29.5725 22.9076 28.2367 25.5738 25.565C28.2396 22.8933 29.5725 19.6494 29.5725 15.8333C29.5725 12.0058 28.2396 8.75903 25.5738 6.09292C22.9076 3.42708 19.6608 2.09417 15.8333 2.09417C12.0172 2.09417 8.77333 3.42708 6.10167 6.09292C3.43 8.75903 2.09417 12.0058 2.09417 15.8333C2.09417 19.6494 3.43 22.8933 6.10167 25.565C8.77333 28.2367 12.0172 29.5725 15.8333 29.5725Z" fill="white"/>
</svg>
