<svg width="25" height="32" viewBox="0 0 25 32" fill="none" xmlns="http://www.w3.org/2000/svg">
<path d="M10.6625 21.7487L7.44458 18.5204C7.34125 18.4263 7.2332 18.3539 7.12042 18.3033C7.00764 18.2528 6.88903 18.2275 6.76458 18.2275C6.63986 18.2275 6.51389 18.2533 6.38667 18.305C6.25917 18.3567 6.14667 18.4342 6.04917 18.5375C5.85056 18.7478 5.75125 18.9875 5.75125 19.2567C5.75125 19.5258 5.85056 19.7597 6.04917 19.9583L9.7575 23.675C9.895 23.8125 10.0379 23.9104 10.1863 23.9688C10.3349 24.0274 10.4956 24.0567 10.6683 24.0567C10.8411 24.0567 11.0026 24.0274 11.1529 23.9688C11.3032 23.9104 11.4471 23.8125 11.5846 23.675L18.8717 16.3879C19.0597 16.1921 19.1564 15.9563 19.1617 15.6804C19.1672 15.4049 19.0675 15.166 18.8625 14.9638C18.6575 14.7615 18.421 14.6604 18.1529 14.6604C17.8851 14.6604 17.6483 14.7597 17.4425 14.9583L10.6625 21.7487ZM2.60708 31.6667C1.89069 31.6667 1.27708 31.4113 0.76625 30.9004C0.255417 30.3896 0 29.776 0 29.0596V2.60708C0 1.89069 0.255417 1.27708 0.76625 0.766251C1.27708 0.255417 1.89069 0 2.60708 0H15.595C15.9522 0 16.2918 0.0705563 16.6138 0.211667C16.9354 0.352778 17.2158 0.539306 17.455 0.77125L24.2288 7.545C24.4607 7.78417 24.6472 8.06458 24.7883 8.38625C24.9294 8.7082 25 9.04778 25 9.405V29.0596C25 29.776 24.7446 30.3896 24.2337 30.9004C23.7229 31.4113 23.1093 31.6667 22.3929 31.6667H2.60708ZM15.6263 8.00833V2.09417H2.60708C2.47875 2.09417 2.36111 2.1475 2.25417 2.25417C2.1475 2.36111 2.09417 2.47875 2.09417 2.60708V29.0596C2.09417 29.1879 2.1475 29.3056 2.25417 29.4125C2.36111 29.5192 2.47875 29.5725 2.60708 29.5725H22.3929C22.5212 29.5725 22.6389 29.5192 22.7458 29.4125C22.8525 29.3056 22.9058 29.1879 22.9058 29.0596V9.31208H16.9296C16.5646 9.31208 16.2561 9.18611 16.0042 8.93417C15.7522 8.68194 15.6263 8.37333 15.6263 8.00833Z" fill="#1C8CF4"/>
</svg>
