<svg width="29" height="28" viewBox="0 0 29 28" fill="none" xmlns="http://www.w3.org/2000/svg">
<path d="M19.6667 9.21708L17.8108 7.37708C17.6656 7.23181 17.4951 7.16083 17.2996 7.16417C17.104 7.16722 16.9283 7.24681 16.7725 7.40292C16.6164 7.55875 16.5383 7.73181 16.5383 7.92208C16.5383 8.11236 16.6164 8.28542 16.7725 8.44125L18.7533 10.4063C19.0144 10.666 19.3192 10.7958 19.6675 10.7958C20.0158 10.7958 20.32 10.666 20.58 10.4063L24.8971 6.06333C25.0404 5.92 25.1147 5.75056 25.12 5.555C25.1256 5.35944 25.0503 5.18375 24.8942 5.02792C24.7383 4.8718 24.5653 4.79375 24.375 4.79375C24.1847 4.79375 24.0117 4.8718 23.8558 5.02792L19.6667 9.21708ZM1.04708 27.2971C0.750417 27.2971 0.501805 27.1963 0.30125 26.9946C0.100416 26.7926 0 26.5426 0 26.2446C0 25.9463 0.100416 25.6981 0.30125 25.5C0.501805 25.3019 0.750417 25.2029 1.04708 25.2029H18.1196C18.4163 25.2029 18.665 25.3039 18.8658 25.5058C19.0664 25.7075 19.1667 25.9575 19.1667 26.2558C19.1667 26.5539 19.0664 26.8019 18.8658 27C18.665 27.1981 18.4163 27.2971 18.1196 27.2971H1.04708ZM15.375 13.1708C13.8714 11.6664 13.1196 9.84694 13.1196 7.7125C13.1196 5.57805 13.8718 3.75903 15.3763 2.25542C16.8807 0.751806 18.7001 0 20.8346 0C22.969 0 24.7881 0.752224 26.2917 2.25667C27.7953 3.76111 28.5471 5.58056 28.5471 7.715C28.5471 9.84945 27.7949 11.6685 26.2904 13.1721C24.786 14.6757 22.9665 15.4275 20.8321 15.4275C18.6976 15.4275 16.8786 14.6753 15.375 13.1708ZM1.04708 13.5579C0.750417 13.5579 0.501805 13.4569 0.30125 13.255C0.100416 13.0533 0 12.8033 0 12.505C0 12.2069 0.100416 11.9589 0.30125 11.7608C0.501805 11.5628 0.750417 11.4638 1.04708 11.4638H9.2725C9.56917 11.4638 9.81778 11.5651 10.0183 11.7679C10.2192 11.9704 10.3196 12.2176 10.3196 12.5096C10.3196 12.7846 10.2175 13.0281 10.0133 13.24C9.80917 13.4519 9.56222 13.5579 9.2725 13.5579H1.04708ZM1.04708 20.4275C0.750417 20.4275 0.501805 20.3265 0.30125 20.1246C0.100416 19.9229 0 19.6731 0 19.375C0 19.0767 0.100416 18.8285 0.30125 18.6304C0.501805 18.4324 0.750417 18.3333 1.04708 18.3333H15.8942C16.1908 18.3333 16.4396 18.4347 16.6404 18.6375C16.841 18.84 16.9413 19.0874 16.9413 19.3796C16.9413 19.6543 16.8472 19.8976 16.6592 20.1096C16.4708 20.3215 16.2158 20.4275 15.8942 20.4275H1.04708Z" fill="white"/>
</svg>
