<svg width="36" height="28" viewBox="0 0 36 28" fill="none" xmlns="http://www.w3.org/2000/svg">
<path d="M0 27.5V25.4058H35.3842V27.5H0ZM4.46583 23.3333C3.74944 23.3333 3.13583 23.0779 2.625 22.5671C2.11417 22.0562 1.85875 21.4428 1.85875 20.7267V2.60708C1.85875 1.89069 2.11417 1.27708 2.625 0.766251C3.13583 0.255417 3.74944 0 4.46583 0H30.9183C31.6347 0 32.2483 0.255417 32.7592 0.766251C33.27 1.27708 33.5254 1.89069 33.5254 2.60708V20.7267C33.5254 21.4428 33.27 22.0562 32.7592 22.5671C32.2483 23.0779 31.6347 23.3333 30.9183 23.3333H4.46583ZM4.46583 21.2396H30.9183C31.0467 21.2396 31.1643 21.1861 31.2713 21.0792C31.3779 20.9722 31.4312 20.8547 31.4312 20.7267V2.60708C31.4312 2.47875 31.3779 2.36111 31.2713 2.25417C31.1643 2.1475 31.0467 2.09417 30.9183 2.09417H4.46583C4.3375 2.09417 4.21986 2.1475 4.11292 2.25417C4.00625 2.36111 3.95292 2.47875 3.95292 2.60708V20.7267C3.95292 20.8547 4.00625 20.9722 4.11292 21.0792C4.21986 21.1861 4.3375 21.2396 4.46583 21.2396Z" fill="#1C8CF4"/>
<path d="M12.7392 12.5792H16.895V16.735C16.895 17.0317 16.994 17.2804 17.1921 17.4813C17.3901 17.6818 17.6383 17.7821 17.9367 17.7821C18.2347 17.7821 18.4846 17.6818 18.6863 17.4813C18.8882 17.2804 18.9892 17.0317 18.9892 16.735V12.5792H23.145C23.4417 12.5792 23.6904 12.4801 23.8913 12.2821C24.0918 12.084 24.1921 11.8358 24.1921 11.5375C24.1921 11.2394 24.0918 10.9896 23.8913 10.7879C23.6904 10.586 23.4417 10.485 23.145 10.485H18.9892V6.32917C18.9892 6.0325 18.8901 5.78375 18.6921 5.58292C18.494 5.38236 18.2458 5.28208 17.9475 5.28208C17.6494 5.28208 17.3996 5.38236 17.1979 5.58292C16.996 5.78375 16.895 6.0325 16.895 6.32917V10.485H12.7392C12.4425 10.485 12.1937 10.584 11.9929 10.7821C11.7924 10.9801 11.6921 11.2283 11.6921 11.5267C11.6921 11.8247 11.7924 12.0746 11.9929 12.2763C12.1937 12.4782 12.4425 12.5792 12.7392 12.5792Z" fill="#1C8CF4"/>
</svg>
