<svg width="36" height="32" viewBox="0 0 36 32" fill="none" xmlns="http://www.w3.org/2000/svg">
<path d="M2.60708 31.8075C1.89069 31.8075 1.27708 31.5521 0.76625 31.0413C0.255417 30.5304 0 29.9168 0 29.2004V9.55542C0 8.84875 0.255417 8.23764 0.76625 7.72208C1.27708 7.20653 1.89069 6.94875 2.60708 6.94875H8.11958L10.4058 4.33833C10.6403 4.05806 10.9274 3.84403 11.2671 3.69625C11.6068 3.5482 11.9708 3.47417 12.3592 3.47417H20.1538C20.4504 3.47417 20.6992 3.575 20.9 3.77667C21.1006 3.97861 21.2008 4.22861 21.2008 4.52667C21.2008 4.825 21.1006 5.07319 20.9 5.27125C20.6992 5.46931 20.4504 5.56833 20.1538 5.56833H12.1346L9.07708 9.0425H2.60708C2.45736 9.0425 2.33444 9.09236 2.23833 9.19208C2.14222 9.29181 2.09417 9.41292 2.09417 9.55542V29.2004C2.09417 29.3501 2.14222 29.4731 2.23833 29.5692C2.33444 29.6653 2.45736 29.7133 2.60708 29.7133H29.0596C29.2093 29.7133 29.3322 29.6653 29.4283 29.5692C29.5244 29.4731 29.5725 29.3501 29.5725 29.2004V14.9871C29.5725 14.6904 29.6735 14.4417 29.8754 14.2408C30.0771 14.0403 30.3271 13.94 30.6254 13.94C30.9235 13.94 31.1715 14.0403 31.3696 14.2408C31.5676 14.4417 31.6667 14.6904 31.6667 14.9871V29.2004C31.6667 29.9168 31.4088 30.5304 30.8929 31.0413C30.3774 31.5521 29.7663 31.8075 29.0596 31.8075H2.60708ZM29.5725 5.56833H27.1625C26.8658 5.56833 26.6171 5.46736 26.4163 5.26542C26.2157 5.06375 26.1154 4.81375 26.1154 4.51542C26.1154 4.21736 26.2157 3.96931 26.4163 3.77125C26.6171 3.57319 26.8658 3.47417 27.1625 3.47417H29.5725V1.04667C29.5725 0.750278 29.6735 0.501668 29.8754 0.300835C30.0771 0.100279 30.3271 0 30.6254 0C30.9235 0 31.1715 0.100279 31.3696 0.300835C31.5676 0.501668 31.6667 0.750278 31.6667 1.04667V3.47417H34.0942C34.3906 3.47417 34.6392 3.575 34.84 3.77667C35.0406 3.97861 35.1408 4.22861 35.1408 4.52667C35.1408 4.825 35.0406 5.07319 34.84 5.27125C34.6392 5.46931 34.3906 5.56833 34.0942 5.56833H31.6667V7.97833C31.6667 8.275 31.5658 8.52375 31.3642 8.72458C31.1622 8.92514 30.9122 9.02542 30.6142 9.02542C30.3158 9.02542 30.0676 8.92514 29.8696 8.72458C29.6715 8.52375 29.5725 8.275 29.5725 7.97833V5.56833ZM15.8246 26.0254C17.7015 26.0254 19.2815 25.3839 20.5646 24.1008C21.8476 22.8178 22.4892 21.2378 22.4892 19.3608C22.4892 17.4842 21.8476 15.9071 20.5646 14.6296C19.2815 13.3521 17.7015 12.7133 15.8246 12.7133C13.9479 12.7133 12.3708 13.3521 11.0933 14.6296C9.81611 15.9071 9.1775 17.4842 9.1775 19.3608C9.1775 21.2378 9.81611 22.8178 11.0933 24.1008C12.3708 25.3839 13.9479 26.0254 15.8246 26.0254ZM15.8246 23.9312C14.524 23.9312 13.44 23.4947 12.5725 22.6217C11.705 21.7483 11.2713 20.6614 11.2713 19.3608C11.2713 18.0603 11.705 16.9762 12.5725 16.1087C13.44 15.2413 14.524 14.8075 15.8246 14.8075C17.1254 14.8075 18.2124 15.2413 19.0854 16.1087C19.9587 16.9762 20.3954 18.0603 20.3954 19.3608C20.3954 20.6614 19.9587 21.7483 19.0854 22.6217C18.2124 23.4947 17.1254 23.9312 15.8246 23.9312Z" fill="#1C8CF4"/>
</svg>
