<svg width="231" height="48" viewBox="0 0 231 48" fill="none" xmlns="http://www.w3.org/2000/svg">
<rect x="29.7002" width="48" height="48" rx="24" fill="#1C8CF4"/>
<path d="M48.5421 21.8515H44.1321C42.789 21.8515 41.7002 22.9341 41.7002 24.2696C41.7002 25.6051 42.789 26.6878 44.1321 26.6878H48.5421C49.8853 26.6878 50.9741 25.6051 50.9741 24.2696C50.9741 22.9341 49.8853 21.8515 48.5421 21.8515Z" fill="white"/>
<path d="M44.1321 13.959H52.7954C54.1376 13.959 55.2273 15.0425 55.2273 16.3771C55.2273 17.7118 54.1376 18.7953 52.7954 18.7953H44.1321C42.7899 18.7953 41.7002 17.7118 41.7002 16.3771C41.7002 15.0425 42.7899 13.959 44.1321 13.959Z" fill="white"/>
<path d="M44.6479 30.456H44.1321C42.7889 30.456 41.7002 31.5385 41.7002 32.8742C41.7002 34.2098 42.7889 35.2923 44.1321 35.2923H44.6479C45.9912 35.2923 47.0799 34.2098 47.0799 32.8742C47.0799 31.5385 45.9912 30.456 44.6479 30.456Z" fill="white"/>
<path d="M63.9776 24.0088C65.1408 22.5106 65.6915 21.4483 65.7002 19.6777C65.7002 19.1687 65.617 18.498 65.4108 17.7974C64.8854 16.0076 63.5576 14.0177 60.7647 13.9888H59.0131C57.7163 13.9888 56.6576 14.9973 56.586 16.2684V16.5446C56.6528 17.7301 57.5789 18.6875 58.7557 18.8107H60.4415C60.4657 18.8107 60.4947 18.8155 60.5266 18.8242C60.7221 18.88 61.0241 19.1273 61.0512 19.7913C61.0715 20.2945 60.9883 20.6919 60.5683 21.2087C60.1734 21.6744 59.7728 21.813 59.1805 21.8515C59.1079 21.8563 59.0334 21.8592 58.955 21.862C58.9028 21.862 58.8031 21.8572 58.6918 21.8515H54.8615C53.5183 21.8515 52.4296 22.934 52.4296 24.2696C52.4296 25.5533 53.436 26.6031 54.7066 26.682H58.6018C58.6405 26.683 58.6773 26.6849 58.7131 26.6878C59.407 26.7272 59.7592 26.9004 60.066 27.2392C60.3718 27.6019 60.485 27.9252 60.485 28.6354C60.485 29.129 60.3583 29.539 60.0437 29.9162C59.7089 30.2876 59.3421 30.431 58.6018 30.457H50.9334C49.5912 30.457 48.5025 31.5395 48.5025 32.8751C48.5025 34.2107 49.5728 35.274 50.9005 35.2923C52.1479 35.2923 53.7505 35.2923 55.3889 35.2923C56.4757 35.2923 57.5779 35.2923 58.6018 35.2923C60.727 35.3183 62.6276 34.3099 63.7347 32.8886C64.8612 31.4721 65.3431 30.3078 65.3479 28.6354C65.3441 26.989 64.8728 25.6659 63.7628 24.2629C63.8344 24.1782 63.9128 24.0974 63.9786 24.0108L63.9776 24.0088Z" fill="white"/>
<path d="M177.781 15.4379C175.963 15.4379 174.489 13.9643 174.489 12.1465V11.9179C174.489 10.1001 175.963 8.62646 177.781 8.62646H198.123C199.941 8.62646 201.415 10.1001 201.415 11.9179V12.1465C201.415 13.9643 199.941 15.4379 198.123 15.4379H195.243C193.426 15.4379 191.952 16.9115 191.952 18.7293V37.335C191.952 39.1528 190.478 40.6265 188.661 40.6265H187.289C185.471 40.6265 183.998 39.1528 183.998 37.335V18.7293C183.998 16.9115 182.524 15.4379 180.706 15.4379H177.781Z" fill="#475569"/>
<path d="M169.082 8.62646C170.9 8.62646 172.374 10.1001 172.374 11.9179V37.335C172.374 39.1528 170.9 40.6265 169.082 40.6265H167.711C165.893 40.6265 164.419 39.1528 164.419 37.335V11.9179C164.419 10.1001 165.893 8.62646 167.711 8.62646H169.082Z" fill="#475569"/>
<path d="M155.642 23.9408C157.257 24.5808 158.537 25.5865 159.482 26.9579C160.457 28.2988 160.945 29.9293 160.945 31.8493C160.945 34.6531 159.893 36.8169 157.791 38.3407C155.688 39.8646 152.625 40.6265 148.602 40.6265H135.711C133.893 40.6265 132.419 39.1528 132.419 37.335V11.9179C132.419 10.1001 133.893 8.62646 135.711 8.62646H147.733C151.512 8.62646 154.408 9.38837 156.419 10.9122C158.431 12.4055 159.436 14.4322 159.436 16.9922C159.436 18.4855 159.086 19.8417 158.385 21.0608C157.714 22.2493 156.8 23.2093 155.642 23.9408ZM140.373 19.7808C140.373 20.6897 141.11 21.4265 142.019 21.4265H146.682C149.852 21.4265 151.436 20.3293 151.436 18.135C151.436 15.9712 149.852 14.8893 146.682 14.8893H142.019C141.11 14.8893 140.373 15.6261 140.373 16.535V19.7808ZM147.916 34.3636C151.238 34.3636 152.899 33.2208 152.899 30.935C152.899 28.6493 151.238 27.5065 147.916 27.5065H142.019C141.11 27.5065 140.373 28.2433 140.373 29.1522V32.7179C140.373 33.6268 141.11 34.3636 142.019 34.3636H147.916Z" fill="#475569"/>
<path d="M124.181 21.3808C125.961 21.3808 127.403 22.8237 127.403 24.6036C127.403 26.3835 125.961 27.8265 124.181 27.8265H117.461C115.681 27.8265 114.238 26.3835 114.238 24.6036C114.238 22.8237 115.681 21.3808 117.461 21.3808H124.181Z" fill="#475569"/>
<path d="M111.746 37.335C111.746 39.1528 110.272 40.6265 108.454 40.6265H90.9916C89.1738 40.6265 87.7002 39.1528 87.7002 37.335V11.9179C87.7002 10.1001 89.1738 8.62646 90.9916 8.62646H107.86C109.678 8.62646 111.152 10.1001 111.152 11.9179V12.0093C111.152 13.8271 109.678 15.3008 107.86 15.3008H98.5802C96.9643 15.3008 95.6545 16.6106 95.6545 18.2265C95.6545 19.8423 96.9643 21.1522 98.5802 21.1522H106.123C107.916 21.1522 109.369 22.6053 109.369 24.3979C109.369 26.1905 107.916 27.6436 106.123 27.6436H98.7859C97.0564 27.6436 95.6545 29.0456 95.6545 30.775C95.6545 32.5045 97.0564 33.9065 98.7859 33.9065H108.454C110.272 33.9065 111.746 35.3801 111.746 37.1979V37.335Z" fill="#1C8CF4"/>
<path d="M111.746 37.335C111.746 39.1528 110.272 40.6265 108.454 40.6265H90.9916C89.1738 40.6265 87.7002 39.1528 87.7002 37.335V11.9179C87.7002 10.1001 89.1738 8.62646 90.9916 8.62646H107.86C109.678 8.62646 111.152 10.1001 111.152 11.9179V12.0093C111.152 13.8271 109.678 15.3008 107.86 15.3008H98.5802C96.9643 15.3008 95.6545 16.6106 95.6545 18.2265C95.6545 19.8423 96.9643 21.1522 98.5802 21.1522H106.123C107.916 21.1522 109.369 22.6053 109.369 24.3979C109.369 26.1905 107.916 27.6436 106.123 27.6436H98.7859C97.0564 27.6436 95.6545 29.0456 95.6545 30.775C95.6545 32.5045 97.0564 33.9065 98.7859 33.9065H108.454C110.272 33.9065 111.746 35.3801 111.746 37.1979V37.335Z" fill="#1C8CF4"/>
</svg>
